<?xml version="1.0" encoding="UTF-8"?>
<svg version="1.1" xmlns="http://www.w3.org/2000/svg" width="666" height="375">
<path d="M0 0 C0.495 0.99 0.495 0.99 1 2 C1.61875 2.309375 2.2375 2.61875 2.875 2.9375 C5.09992899 4.0499645 6.32747318 5.18203607 8 7 C8.556875 7.556875 9.11375 8.11375 9.6875 8.6875 C10.120625 9.120625 10.55375 9.55375 11 10 C11.1127124 9.39631592 11.2254248 8.79263184 11.34155273 8.1706543 C12.24249395 5.20058815 13.90077009 3.69283364 16.44580078 1.99462891 C22.35331892 -0.30581354 29.19124943 0.50689374 35.4375 0.6875 C36.94722875 0.71261084 38.45699766 0.73541912 39.96679688 0.75585938 C43.64537284 0.81064267 47.32242808 0.89675988 51 1 C52.32437164 22.35862938 51.9616948 43.68183618 51.66339111 65.06530762 C51.61157236 68.94207525 51.56835905 72.81892112 51.52509499 76.6957922 C51.48245146 80.4334257 51.43500478 84.17098571 51.38599777 87.90854073 C51.36310353 89.69120136 51.34159371 91.47388033 51.32149124 93.25657463 C51.29288781 95.72054189 51.25795363 98.1843362 51.22119141 100.64819336 C51.2138649 101.3830043 51.20653839 102.11781525 51.19898987 102.87489319 C51.11435051 107.88564949 51.11435051 107.88564949 50 109 C48.5112814 109.08669432 47.018555 109.10703494 45.52734375 109.09765625 C44.62822266 109.09443359 43.72910156 109.09121094 42.80273438 109.08789062 C41.38444336 109.07532227 41.38444336 109.07532227 39.9375 109.0625 C38.5134082 109.05573242 38.5134082 109.05573242 37.06054688 109.04882812 C34.70696935 109.0370011 32.35351523 109.02052025 30 109 C29.98969254 107.90197052 29.97938507 106.80394104 29.96876526 105.67263794 C29.87115782 95.34247056 29.76843593 85.01236512 29.66066074 74.68229866 C29.60541346 69.37106557 29.55199057 64.059827 29.50268555 58.74853516 C29.45506864 53.62623054 29.40272681 48.50399432 29.34705925 43.38177109 C29.32662357 41.42409841 29.30791252 39.46640697 29.29092598 37.50870132 C29.26690882 34.77412357 29.23685063 32.03967577 29.20532227 29.30517578 C29.19668907 28.08166412 29.19668907 28.08166412 29.18788147 26.83343506 C29.22715876 22.78537457 29.22715876 22.78537457 28 19 C26.02 19 24.04 19 22 19 C20.08384012 23.8398923 19.69569737 28.24864143 19.68115234 33.39208984 C19.66608391 34.62235397 19.66608391 34.62235397 19.65071106 35.87747192 C19.61997091 38.57195372 19.60286955 41.26633657 19.5859375 43.9609375 C19.56721847 45.83567145 19.54764451 47.71039703 19.5272522 49.58511353 C19.47600268 54.5070909 19.43633855 59.42909557 19.39910889 64.35119629 C19.35902419 69.37873039 19.30795223 74.40615165 19.2578125 79.43359375 C19.16113817 89.28899098 19.07772229 99.14443507 19 109 C11.74 109 4.48 109 -3 109 C-3 108.34 -3 107.68 -3 107 C-2.34 107 -1.68 107 -1 107 C-1.10763 96.41208916 -1.22028931 85.82424487 -1.33933926 75.23645592 C-1.39446365 70.31993164 -1.44786663 65.40340131 -1.49731445 60.48681641 C-1.54511296 55.74055573 -1.59746087 50.9943649 -1.65294075 46.24818802 C-1.67329429 44.43895842 -1.69201865 42.62970971 -1.70907402 40.82044601 C-1.73327362 38.28305934 -1.76330607 35.74580285 -1.79467773 33.20849609 C-1.80331093 32.09071274 -1.80331093 32.09071274 -1.81211853 30.9503479 C-1.86930478 26.87141514 -2.21570799 23.00377791 -3 19 C-5.97 18.67 -8.94 18.34 -12 18 C-11.89022324 19.0930545 -11.89022324 19.0930545 -11.77822876 20.20819092 C-10.91263064 29.8589626 -10.9410434 39.39900837 -11.0859375 49.078125 C-11.10775894 50.78350364 -11.12920605 52.4888871 -11.15029907 54.1942749 C-11.19541934 57.73748882 -11.24461167 61.28061491 -11.296875 64.82373047 C-11.36370694 69.37333307 -11.42074465 73.92299781 -11.47490501 78.47276688 C-11.5175993 81.97966741 -11.56504651 85.4864908 -11.61400223 88.99330902 C-11.63692965 90.67269792 -11.65843551 92.35210684 -11.67850876 94.03153229 C-11.70714197 96.36259166 -11.74208398 98.69347007 -11.77880859 101.02441406 C-11.7861351 101.72040207 -11.79346161 102.41639008 -11.80101013 103.13346863 C-11.88568613 107.88568613 -11.88568613 107.88568613 -13 109 C-14.40348735 109.09860131 -15.81180477 109.13078937 -17.21875 109.1328125 C-18.49298828 109.13474609 -18.49298828 109.13474609 -19.79296875 109.13671875 C-20.68628906 109.13285156 -21.57960938 109.12898438 -22.5 109.125 C-23.39332031 109.12886719 -24.28664063 109.13273437 -25.20703125 109.13671875 C-26.05652344 109.13542969 -26.90601563 109.13414062 -27.78125 109.1328125 C-28.56564453 109.13168457 -29.35003906 109.13055664 -30.15820312 109.12939453 C-32 109 -32 109 -33 108 C-33.09543095 106.60856311 -33.12188575 105.21231633 -33.12025452 103.81761169 C-33.12162918 102.91592255 -33.12300385 102.0142334 -33.12442017 101.08522034 C-33.12082489 100.08828659 -33.11722961 99.09135284 -33.11352539 98.06420898 C-33.11367142 97.02043091 -33.11381744 95.97665283 -33.1139679 94.90124512 C-33.11326826 91.43284057 -33.10547353 87.96448897 -33.09765625 84.49609375 C-33.09579225 82.09855682 -33.09436826 79.7010195 -33.09336853 77.30348206 C-33.08954194 70.97904416 -33.07971046 64.65462906 -33.06866455 58.3302002 C-33.05845345 51.88224598 -33.05387156 45.43428809 -33.04882812 38.98632812 C-33.03808831 26.3242071 -33.02049038 13.66210901 -33 1 C-22.11 0.67 -11.22 0.34 0 0 Z " fill="#0D3754" transform="translate(287,133)"/>
<path d="M0 0 C0.10808032 7.09727428 -0.06145994 13.96094956 -1 21 C3.62 20.67 8.24 20.34 13 20 C12.67 13.4 12.34 6.8 12 0 C17.47159989 -1.36789997 20.22930847 0.26940682 25 3 C32.35445675 8.20065156 37.41479172 14.30208221 39.375 23.1875 C41.20677159 35.730774 38.34461554 45.18130302 32.125 56 C31.33718775 57.38538719 30.54943099 58.77080594 29.76171875 60.15625 C29.32907715 60.91421875 28.89643555 61.6721875 28.45068359 62.453125 C26.19795205 66.40810573 23.96204047 70.3725622 21.72412109 74.3359375 C19.15157797 78.8918488 16.57574811 83.44590016 14 88 C13.34 88 12.68 88 12 88 C11.92523437 88.66257812 11.85046875 89.32515625 11.7734375 90.0078125 C10.72630154 94.05885364 8.74212702 97.29062356 6.625 100.875 C3.7278119 105.8189113 1.15163205 110.6833866 -1 116 C2.79228144 115.89047884 6.5835384 115.75976759 10.375 115.625 C11.45523438 115.5940625 12.53546875 115.563125 13.6484375 115.53125 C14.6796875 115.49257812 15.7109375 115.45390625 16.7734375 115.4140625 C17.72653809 115.3826416 18.67963867 115.3512207 19.66162109 115.31884766 C22.18895176 115.21444204 22.18895176 115.21444204 24 113 C25.02950887 110.23589845 25.91367641 107.44045804 26.8046875 104.62890625 C28.12100822 101.733861 29.32749806 100.64934743 32 99 C36.13137396 101.06568698 37.57828008 105.82929015 39 110 C40.83338016 120.02863943 41.52571984 132.74700948 36 141.6875 C35.34 142.450625 34.68 143.21375 34 144 C33.34 144 32.68 144 32 144 C31.938125 144.598125 31.87625 145.19625 31.8125 145.8125 C30.646303 148.95226116 28.94288173 149.46458344 26 151 C25.17048828 151.51433594 25.17048828 151.51433594 24.32421875 152.0390625 C23.74285156 152.39742187 23.16148437 152.75578125 22.5625 153.125 C22.02753906 153.45757812 21.49257813 153.79015625 20.94140625 154.1328125 C18.35393059 155.28858633 15.79464723 155.61480249 13 156 C12.80644787 148.34393782 12.6520257 141.33741969 15 134 C10.05 134.33 5.1 134.66 0 135 C0.33 141.6 0.66 148.2 1 155 C-5.62020015 154.17247498 -8.47487868 153.64745396 -14 151 C-14 150.01 -14 149.02 -14 148 C-14.598125 147.731875 -15.19625 147.46375 -15.8125 147.1875 C-21.7309916 143.97460456 -24.12651235 138.22390842 -26 132 C-28.82458338 116.91934359 -23.15552631 103.97514537 -14.765625 91.640625 C-12.87446707 89.06412347 -12.87446707 89.06412347 -12 86 C-11.34 86 -10.68 86 -10 86 C-9.34 83.69 -8.68 81.38 -8 79 C-7.34 79 -6.68 79 -6 79 C-5.7421875 78.14148438 -5.484375 77.28296875 -5.21875 76.3984375 C-3.95438967 72.87281736 -2.38416682 69.85842187 -0.5 66.625 C0.1084375 65.56539063 0.716875 64.50578125 1.34375 63.4140625 C1.8903125 62.61742187 2.436875 61.82078125 3 61 C3.66 61 4.32 61 5 61 C5.103125 60.28972656 5.20625 59.57945312 5.3125 58.84765625 C6.08652446 55.64161174 7.35088905 53.28776628 9 50.4375 C10.83315433 47.26032626 12.19543984 44.56786376 13 41 C11.72382812 41.01160156 10.44765625 41.02320313 9.1328125 41.03515625 C7.46354313 41.04453417 5.79427217 41.05363437 4.125 41.0625 C3.28324219 41.07087891 2.44148437 41.07925781 1.57421875 41.08789062 C0.76855469 41.09111328 -0.03710938 41.09433594 -0.8671875 41.09765625 C-1.98262939 41.10551147 -1.98262939 41.10551147 -3.12060547 41.11352539 C-5 41 -5 41 -7 40 C-7.2475 40.78375 -7.495 41.5675 -7.75 42.375 C-9.33931493 46.98401329 -11.16207173 51.48547716 -13 56 C-15.375 55.75 -15.375 55.75 -18 55 C-19.12109375 53.27734375 -19.12109375 53.27734375 -20 51 C-21.54656672 48.24735738 -23.09901353 45.49831118 -24.66015625 42.75390625 C-28.44855191 34.9672621 -27.65156608 26.42915564 -24.96875 18.41796875 C-21.42952936 9.58418821 -15.82404858 4.14713259 -7.25 0.0625 C-3.9458717 -1.01769579 -3.13503152 -0.98821646 0 0 Z " fill="#B90F1F" transform="translate(543,110)"/>
<path d="M0 0 C2.25159077 0.05444882 4.50259216 0.08357244 6.75463867 0.11206055 C17.27753584 0.32980082 26.63961492 1.3406405 34.85424805 8.49291992 C38.82175036 12.80930281 40.09216819 17.25635825 41.35424805 22.86791992 C41.84924805 23.85791992 41.84924805 23.85791992 42.35424805 24.86791992 C42.42823185 35.04809149 40.37075044 44.49713399 34.35424805 52.86791992 C33.36424805 53.52791992 32.37424805 54.18791992 31.35424805 54.86791992 C32.34424805 54.86791992 33.33424805 54.86791992 34.35424805 54.86791992 C40.93655386 62.43757161 43.80318291 72.60143935 43.1862793 82.58666992 C42.95034828 85.02120446 42.6771672 87.44354227 42.35424805 89.86791992 C41.69424805 89.86791992 41.03424805 89.86791992 40.35424805 89.86791992 C40.10674805 90.91979492 39.85924805 91.97166992 39.60424805 93.05541992 C37.67158282 99.58966901 33.78891615 102.49232974 28.0612793 105.75463867 C19.01345214 109.47560655 9.87405884 109.10885702 0.29174805 108.99291992 C-1.16071973 108.98286824 -2.61319425 108.97374627 -4.06567383 108.96557617 C-7.59250877 108.94374009 -11.11908615 108.90933141 -14.64575195 108.86791992 C-15.46958588 105.9853762 -15.76962257 103.43279278 -15.76600647 100.43865967 C-15.76738113 99.55808899 -15.7687558 98.67751831 -15.77017212 97.77026367 C-15.76657684 96.81216797 -15.76298157 95.85407227 -15.75927734 94.86694336 C-15.75942337 93.85198792 -15.7595694 92.83703247 -15.75971985 91.7913208 C-15.7590232 88.43662377 -15.75124231 85.08198226 -15.7434082 81.72729492 C-15.74154315 79.40130646 -15.74011966 77.07531761 -15.73912048 74.74932861 C-15.73530222 68.62714554 -15.72547779 62.5049862 -15.7144165 56.3828125 C-15.70418756 50.13566407 -15.69961968 43.88851181 -15.69458008 37.64135742 C-15.68385494 25.3835345 -15.66678676 13.12572918 -15.64575195 0.86791992 C-11.17086337 -1.36952437 -4.9706966 -0.13059739 0 0 Z M6.35424805 17.86791992 C5.56931309 21.33698944 5.22597685 24.5441686 5.22143555 28.09838867 C5.22014648 29.06583008 5.21885742 30.03327148 5.2175293 31.0300293 C5.22139648 32.0284082 5.22526367 33.02678711 5.22924805 34.05541992 C5.22538086 35.06540039 5.22151367 36.07538086 5.2175293 37.1159668 C5.21881836 38.07954102 5.22010742 39.04311523 5.22143555 40.03588867 C5.22256348 40.915271 5.22369141 41.79465332 5.22485352 42.70068359 C5.21463527 44.91628762 5.21463527 44.91628762 6.35424805 46.86791992 C12.24696198 46.59406505 12.24696198 46.59406505 17.22924805 43.68041992 C20.73495363 39.04051548 21.83150626 34.73588644 21.67456055 28.89526367 C21.00166885 24.6363516 18.94598662 21.13033328 15.54174805 18.43041992 C12.45121687 17.6357119 9.52720144 17.74588325 6.35424805 17.86791992 Z M6.35424805 62.86791992 C4.13214556 77.64796091 4.13214556 77.64796091 6.35424805 91.86791992 C11.00477677 92.13724513 11.00477677 92.13724513 15.35424805 90.86791992 C15.35424805 90.20791992 15.35424805 89.54791992 15.35424805 88.86791992 C16.34424805 89.19791992 17.33424805 89.52791992 18.35424805 89.86791992 C22.32337406 84.07961115 22.27690791 77.68205927 21.35424805 70.86791992 C20.02545816 67.78777477 18.75214903 66.32158604 16.35424805 63.86791992 C12.88099624 62.71016932 9.99357357 62.7992534 6.35424805 62.86791992 Z " fill="#0D3754" transform="translate(360.645751953125,133.132080078125)"/>
<path d="M0 0 C7.72462142 7.89659815 9.34635907 14.62135931 9.3125 25.375 C9.32861328 26.39078125 9.34472656 27.4065625 9.36132812 28.453125 C9.36622041 35.98724644 8.68247911 41.12591524 3.375 46.8125 C2.59125 47.534375 1.8075 48.25625 1 49 C0.505 49.99 0.505 49.99 0 51 C-0.99 51 -1.98 51 -3 51 C-2.236875 51.86625 -1.47375 52.7325 -0.6875 53.625 C4.22162647 59.19752194 5.45815422 64.41924011 5.546875 71.609375 C5.57735931 72.82140594 5.57735931 72.82140594 5.60845947 74.05792236 C5.64848052 75.75543029 5.6817113 77.45311054 5.70849609 79.15087891 C5.75009723 81.75608911 5.81272269 84.36015297 5.87890625 86.96484375 C5.91528292 88.61716108 5.95048086 90.26950488 5.984375 91.921875 C6.0019989 92.70205994 6.0196228 93.48224487 6.03778076 94.28607178 C6.11690123 99.76619753 6.11690123 99.76619753 5 102 C-1.6 102 -8.2 102 -15 102 C-15.9131892 98.34724321 -16.09079184 95.73793104 -16.02734375 92.01953125 C-16.00897461 90.2725293 -16.00897461 90.2725293 -15.99023438 88.49023438 C-15.95535727 86.05787909 -15.91636217 83.62557902 -15.87304688 81.19335938 C-15.81000618 74.45542138 -16.0693715 68.4780322 -18 62 C-20.36666667 59.23333333 -20.36666667 59.23333333 -27 59 C-27 72.86 -27 86.72 -27 101 C-30.86026684 102.28675561 -34.53912367 102.22328879 -38.5625 102.25 C-39.34302734 102.270625 -40.12355469 102.29125 -40.92773438 102.3125 C-43.19140625 102.328125 -43.19140625 102.328125 -47 102 C-49.06800263 98.89799606 -49.24977285 98.25153414 -49.24723816 94.74241638 C-49.25143265 93.87452484 -49.25562714 93.0066333 -49.25994873 92.11244202 C-49.25432922 91.16324387 -49.24870972 90.21404572 -49.24291992 89.23608398 C-49.24576744 87.73331909 -49.24576744 87.73331909 -49.24867249 86.20019531 C-49.25238322 82.88208236 -49.24167228 79.56418731 -49.23046875 76.24609375 C-49.22927708 73.94588751 -49.22882376 71.64568078 -49.2290802 69.34547424 C-49.22751485 64.52268431 -49.21922073 59.69996855 -49.20581055 54.87719727 C-49.18881115 48.68391899 -49.18499645 42.49072223 -49.18575573 36.29742336 C-49.1854843 31.54750281 -49.18000756 26.79760021 -49.17275429 22.04768562 C-49.16956414 19.76343993 -49.16759941 17.47919219 -49.16686058 15.19494438 C-49.16470123 12.00810122 -49.15596601 8.82134589 -49.14526367 5.63452148 C-49.14594345 4.20768791 -49.14594345 4.20768791 -49.14663696 2.75202942 C-49.14237198 1.8869577 -49.13810699 1.02188599 -49.13371277 0.13059998 C-49.131199 -1.00012609 -49.131199 -1.00012609 -49.12863445 -2.15369511 C-49 -4 -49 -4 -48 -6 C-33.60306456 -9.46048788 -12.25397794 -8.78307573 0 0 Z M-27 12 C-27 21.9 -27 31.8 -27 42 C-18.63082425 41.88575925 -18.63082425 41.88575925 -15.4375 38.9375 C-14.963125 38.298125 -14.48875 37.65875 -14 37 C-14.33 36.34 -14.66 35.68 -15 35 C-14.34 35 -13.68 35 -13 35 C-11.44331232 29.43860772 -11.15335752 23.64160189 -13.0625 18.125 C-15.54171147 14.12627183 -17.53523347 13.30863846 -22 12 C-23.65 12 -25.3 12 -27 12 Z " fill="#B81122" transform="translate(507,140)"/>
<path d="M0 0 C6.93 0 13.86 0 21 0 C21.33 29.7 21.66 59.4 22 90 C29.47825081 91.81989159 29.47825081 91.81989159 33 89 C33.28095568 86.19872587 33.36781091 83.62005875 33.32470703 80.81835938 C33.32353882 79.97271927 33.32237061 79.12707916 33.32116699 78.2558136 C33.31396032 75.45154619 33.28573139 72.64788124 33.2578125 69.84375 C33.24968024 67.90084374 33.24301556 65.95793083 33.23776245 64.01501465 C33.22061394 58.8929991 33.18634359 53.77124631 33.14770508 48.64935303 C33.08859398 40.45023072 33.05470594 32.25097438 33.02193832 24.05171204 C33.00793333 21.18101833 32.98634581 18.31045603 32.96365356 15.43981934 C32.95363295 13.68709403 32.94376728 11.93436782 32.93408203 10.18164062 C32.92577362 9.37845901 32.91746521 8.5752774 32.90890503 7.74775696 C32.88657059 2.22685882 32.88657059 2.22685882 34 0 C40.93 0 47.86 0 55 0 C55.06794348 11.04029303 55.12291268 22.08044579 55.15543652 33.12090111 C55.17105116 38.24816062 55.19221232 43.37526891 55.22631836 48.50244141 C55.2590621 53.45616759 55.27688457 58.40974887 55.28463173 63.36357498 C55.29014838 65.24768986 55.3009207 67.13179736 55.31719017 69.01585007 C55.41774686 81.14999477 55.00996709 91.12482146 49 102 C48.34 102 47.68 102 47 102 C46.67 102.66 46.34 103.32 46 104 C45.01 104 44.02 104 43 104 C43 104.66 43 105.32 43 106 C36.8090138 109.27844186 31.98841561 110.64113905 25 110 C23.783125 109.896875 22.56625 109.79375 21.3125 109.6875 C17.80660003 108.95986038 15.11232656 107.74593929 12 106 C12 105.34 12 104.68 12 104 C11.13375 103.62875 11.13375 103.62875 10.25 103.25 C5.3466522 100.52591789 3.3597352 97.28685698 1.77441406 91.98388672 C-0.65363435 82.77051964 -0.50366609 73.72774735 -0.390625 64.2578125 C-0.38314596 62.39452732 -0.37746091 60.53123416 -0.37347412 58.66793823 C-0.35834851 53.81155912 -0.31918277 48.95567396 -0.2746582 44.0994873 C-0.23342009 39.12498655 -0.21540273 34.15040441 -0.1953125 29.17578125 C-0.15267296 19.45027113 -0.08243353 9.7252543 0 0 Z " fill="#0C3652" transform="translate(192,134)"/>
<path d="M0 0 C32 0 32 0 46 6 C46 6.66 46 7.32 46 8 C46.66 8 47.32 8 48 8 C51.97323026 12.27122253 55 15.92811289 55 22 C55.66 22.33 56.32 22.66 57 23 C58.03718223 32.00770219 58.41748716 40.30425747 56.3125 49.1875 C56.15168945 49.88093506 55.99087891 50.57437012 55.82519531 51.28881836 C54.61281334 55.922172 52.92966579 59.28446725 50 63 C49.34 63 48.68 63 48 63 C47.67 63.99 47.34 64.98 47 66 C43.34667973 69.51280795 39.98186399 70.88560539 35.125 72.1875 C33.95195313 72.51105469 32.77890625 72.83460938 31.5703125 73.16796875 C28.08766399 73.97957065 24.54002649 74.49428193 21 75 C20.67 85.89 20.34 96.78 20 108 C13.4 108 6.8 108 0 108 C0 72.36 0 36.72 0 0 Z M21 17 C21 29.87 21 42.74 21 56 C27.6739428 56.62994714 27.6739428 56.62994714 31.3125 53.875 C36.26345511 48.57862941 36.34112137 42.96024996 36.3125 36.0625 C36.32861328 35.28970703 36.34472656 34.51691406 36.36132812 33.72070312 C36.3658202 28.40657405 35.39537417 24.74650659 33 20 C32.34 20 31.68 20 31 20 C30.67 19.34 30.34 18.68 30 18 C27.03 17.67 24.06 17.34 21 17 Z " fill="#113955" transform="translate(83,134)"/>
<path d="M0 0 C14.19 0 28.38 0 43 0 C43 5.94 43 11.88 43 18 C39.1946875 18.2475 39.1946875 18.2475 35.3125 18.5 C34.12781128 18.57831055 34.12781128 18.57831055 32.91918945 18.65820312 C29.95301461 18.84722223 27.01571739 19.0001661 24.04296875 18.96875 C22.00511965 18.76281062 22.00511965 18.76281062 21 20 C20.91299658 21.63472882 20.89298937 23.27314055 20.90234375 24.91015625 C20.90717773 26.39418945 20.90717773 26.39418945 20.91210938 27.90820312 C20.92048828 28.94912109 20.92886719 29.99003906 20.9375 31.0625 C20.94201172 32.10728516 20.94652344 33.15207031 20.95117188 34.22851562 C20.96300087 36.8190666 20.97948311 39.40950559 21 42 C22.21558594 42.06058594 23.43117188 42.12117188 24.68359375 42.18359375 C26.26824228 42.26798332 27.85287702 42.3526321 29.4375 42.4375 C30.23994141 42.47681641 31.04238281 42.51613281 31.86914062 42.55664062 C37.88671875 42.88671875 37.88671875 42.88671875 39 44 C39.07330331 46.86469325 39.09217831 49.69893674 39.0625 52.5625 C39.041875 55.346875 39.02125 58.13125 39 61 C33.06 61 27.12 61 21 61 C20.67 70.24 20.34 79.48 20 89 C27.59 88.67 35.18 88.34 43 88 C43.185625 91.114375 43.37125 94.22875 43.5625 97.4375 C43.62381104 98.42032959 43.68512207 99.40315918 43.74829102 100.41577148 C43.79139404 101.18477783 43.83449707 101.95378418 43.87890625 102.74609375 C43.9260376 103.53685303 43.97316895 104.3276123 44.02172852 105.14233398 C44 107 44 107 43 108 C28.81 108 14.62 108 0 108 C0 72.36 0 36.72 0 0 Z " fill="#0B3553" transform="translate(410,134)"/>
<path d="M0 0 C0.85078125 0.04833984 1.7015625 0.09667969 2.578125 0.14648438 C3.46757812 0.20255859 4.35703125 0.25863281 5.2734375 0.31640625 C6.170625 0.36861328 7.0678125 0.42082031 7.9921875 0.47460938 C10.21127762 0.60444975 12.42993621 0.73941964 14.6484375 0.87890625 C16.22349511 4.02902147 15.78677328 7.40288751 15.77783203 10.86108398 C15.77958435 11.68561066 15.78133667 12.51013733 15.78314209 13.35964966 C15.78755479 16.09395432 15.78462438 18.82819465 15.78125 21.5625 C15.78192327 23.45817579 15.78289349 25.35385149 15.78414917 27.24952698 C15.78562541 31.2266624 15.78347419 35.20377539 15.77880859 39.1809082 C15.77311523 44.28337867 15.77638829 49.3857965 15.78238106 54.48826504 C15.78599197 58.40440773 15.78484557 62.32053792 15.78225327 66.23668098 C15.78158527 68.11818511 15.78240801 69.99969036 15.78473282 71.88119316 C15.78726757 74.50993743 15.78340689 77.1385961 15.77783203 79.76733398 C15.77985626 80.54821884 15.78188049 81.3291037 15.78396606 82.13365173 C15.7714385 85.31654689 15.66257929 87.83648089 14.6484375 90.87890625 C15.9478125 90.71390625 17.2471875 90.54890625 18.5859375 90.37890625 C25.85119008 89.59069489 31.69724664 89.36295305 38.6484375 91.87890625 C38.67528429 94.52480639 38.69520107 97.17043721 38.7109375 99.81640625 C38.71931641 100.57115234 38.72769531 101.32589844 38.73632812 102.10351562 C38.74496191 104.02884938 38.70068083 105.95426206 38.6484375 107.87890625 C37.11759325 109.4097505 35.73640606 109.00606404 33.60351562 109.00830078 C32.74592651 109.01145294 31.8883374 109.0146051 31.00476074 109.01785278 C30.07248657 109.01582855 29.1402124 109.01380432 28.1796875 109.01171875 C26.75372253 109.01315384 26.75372253 109.01315384 25.2989502 109.01461792 C23.28474868 109.01529982 21.27054498 109.01344487 19.25634766 109.00927734 C16.16173395 109.00392923 13.0672654 109.00922202 9.97265625 109.015625 C8.02083301 109.01496422 6.06900986 109.01368306 4.1171875 109.01171875 C2.71877625 109.0147551 2.71877625 109.0147551 1.29211426 109.01785278 C0.43452515 109.01470062 -0.42306396 109.01154846 -1.30664062 109.00830078 C-2.06529419 109.00750519 -2.82394775 109.00670959 -3.60559082 109.00588989 C-5.3515625 108.87890625 -5.3515625 108.87890625 -6.3515625 107.87890625 C-6.44699345 106.48746936 -6.47344825 105.09122258 -6.47181702 103.69651794 C-6.47319168 102.7948288 -6.47456635 101.89313965 -6.47598267 100.96412659 C-6.47238739 99.96719284 -6.46879211 98.97025909 -6.46508789 97.94311523 C-6.46523392 96.89933716 -6.46537994 95.85555908 -6.4655304 94.78015137 C-6.46483076 91.31174682 -6.45703603 87.84339522 -6.44921875 84.375 C-6.44735475 81.97746307 -6.44593076 79.57992575 -6.44493103 77.18238831 C-6.44110444 70.85795041 -6.43127296 64.53353531 -6.42022705 58.20910645 C-6.41001595 51.76115223 -6.40543406 45.31319434 -6.40039062 38.86523438 C-6.38965082 26.20311525 -6.37276369 13.54101196 -6.3515625 0.87890625 C-3.94721244 -0.32326878 -2.66774881 -0.16006493 0 0 Z " fill="#123E59" transform="translate(151.3515625,133.12109375)"/>
<path d="M0 0 C6.93 0 13.86 0 21 0 C21 28.38 21 56.76 21 86 C19.515 86.495 19.515 86.495 18 87 C18.33 58.95 18.66 30.9 19 2 C10.36084993 2.30110094 10.36084993 2.30110094 2 4 C2.00523682 4.89565674 2.01047363 5.79131348 2.01586914 6.71411133 C2.14440539 32.49132423 1.70395055 58.23278876 1 84 C0.67 84 0.34 84 0 84 C-0.15366173 73.34314724 -0.3018435 62.68623389 -0.4429636 52.02920723 C-0.50865976 47.08111515 -0.57626756 42.13306436 -0.64819336 37.18505859 C-0.71749226 32.41298472 -0.78183609 27.64086776 -0.84269524 22.86867905 C-0.86683368 21.04493647 -0.89277967 19.22121692 -0.92053413 17.39752579 C-0.95900272 14.84985202 -0.99113439 12.30217328 -1.02172852 9.75439453 C-1.03467453 8.99482452 -1.04762054 8.23525452 -1.06095886 7.45266724 C-1.11405216 2.22810432 -1.11405216 2.22810432 0 0 Z " fill="#5A6E80" transform="translate(226,134)"/>
<path d="M0 0 C1.4606285 2.64738916 2 3.89448334 2 7 C1.01 7.66 0.02 8.32 -1 9 C-1.2773676 11.57385205 -1.37287588 13.87031753 -1.3125 16.4375 C-1.31572266 17.11876953 -1.31894531 17.80003906 -1.32226562 18.50195312 C-1.28242585 22.19980816 -1.0988558 23.85171631 1 27 C1 27.99 1 28.98 1 30 C2.32 30.33 3.64 30.66 5 31 C5.33 30.34 5.66 29.68 6 29 C5.505 31.475 5.505 31.475 5 34 C5.66 34.33 6.32 34.66 7 35 C7.103125 35.804375 7.20625 36.60875 7.3125 37.4375 C7.73657143 40.19388975 7.73657143 40.19388975 10.25 41.375 C13.23982504 42.05450569 15.07723164 41.83507667 18 41 C17.649375 40.071875 17.29875 39.14375 16.9375 38.1875 C16 35 16 35 17 32 C16.34 31.67 15.68 31.34 15 31 C15 29.68 15 28.36 15 27 C16.65 26.67 18.3 26.34 20 26 C20 25.34 20 24.68 20 24 C20.99 24 21.98 24 23 24 C23 24.66 23 25.32 23 26 C23.66386719 25.84402344 24.32773437 25.68804687 25.01171875 25.52734375 C26.33623047 25.23537109 26.33623047 25.23537109 27.6875 24.9375 C28.99267578 24.64166016 28.99267578 24.64166016 30.32421875 24.33984375 C33.16001276 23.97967721 35.24789982 24.29090031 38 25 C38 25.66 38 26.32 38 27 C32.39 27 26.78 27 21 27 C21.33 29.145 21.66 31.29 22 33.5 C22.75618481 38.75069174 23.21176733 43.70581681 23 49 C17.33895411 48.50341703 13.12325529 47.45489316 8 45 C8 44.01 8 43.02 8 42 C7.401875 41.731875 6.80375 41.46375 6.1875 41.1875 C1.32109898 38.54573945 -0.798459 34.45804773 -2.9765625 29.5078125 C-4.23232397 25.20371403 -4.52070735 21.27696565 -4.5625 16.8125 C-4.57692139 16.06476318 -4.59134277 15.31702637 -4.60620117 14.54663086 C-4.50273515 8.78871522 -2.84250665 4.98992718 0 0 Z " fill="#681D27" transform="translate(521,216)"/>
<path d="M0 0 C4.13137396 2.06568698 5.57828008 6.82929015 7 11 C8.83338016 21.02863943 9.52571984 33.74700948 4 42.6875 C3.34 43.450625 2.68 44.21375 2 45 C1.34 45 0.68 45 0 45 C-0.0928125 45.8971875 -0.0928125 45.8971875 -0.1875 46.8125 C-1.353697 49.95226116 -3.05711827 50.46458344 -6 52 C-6.56460938 52.35449219 -7.12921875 52.70898438 -7.7109375 53.07421875 C-11.63862848 55.51830593 -13.18707124 56 -18 56 C-18 52.37 -18 48.74 -18 45 C-17.34 45.33 -16.68 45.66 -16 46 C-16 46.99 -16 47.98 -16 49 C-15.34 49 -14.68 49 -14 49 C-13.67 48.34 -13.34 47.68 -13 47 C-12.566875 47.495 -12.13375 47.99 -11.6875 48.5 C-10.00259517 50.33218192 -10.00259517 50.33218192 -7 50 C-6.7525 49.113125 -6.505 48.22625 -6.25 47.3125 C-4.96065232 43.89572865 -3.40019871 41.7202252 -1 39 C-0.505 39.495 -0.505 39.495 0 40 C1.80230168 36.17010894 2.19622241 33.21878192 2 29 C2.66 29 3.32 29 4 29 C4 28.34 4 27.68 4 27 C3.34 26.67 2.68 26.34 2 26 C2.66 25.67 3.32 25.34 4 25 C4.33 24.01 4.66 23.02 5 22 C4.34 22 3.68 22 3 22 C3 21.34 3 20.68 3 20 C2.34 20 1.68 20 1 20 C1.185625 19.360625 1.37125 18.72125 1.5625 18.0625 C1.7790625 17.0415625 1.7790625 17.0415625 2 16 C1.67 15.67 1.34 15.34 1 15 C0.95907063 12.66702567 0.95758277 10.33294775 1 8 C-1.31 8 -3.62 8 -6 8 C-3.375 2.25 -3.375 2.25 0 0 Z " fill="#69242F" transform="translate(575,209)"/>
<path d="M0 0 C0.495 0.99 0.495 0.99 1 2 C1.66 2.33 2.32 2.66 3 3 C-8.55 2.67 -20.1 2.34 -32 2 C-32 36.65 -32 71.3 -32 107 C-26.06 107 -20.12 107 -14 107 C-13.67 77.3 -13.34 47.6 -13 17 C-10.36 17 -7.72 17 -5 17 C-5 17.33 -5 17.66 -5 18 C-7.31 18 -9.62 18 -12 18 C-11.89022324 19.0930545 -11.89022324 19.0930545 -11.77822876 20.20819092 C-10.91263064 29.8589626 -10.9410434 39.39900837 -11.0859375 49.078125 C-11.10775894 50.78350364 -11.12920605 52.4888871 -11.15029907 54.1942749 C-11.19541934 57.73748882 -11.24461167 61.28061491 -11.296875 64.82373047 C-11.36370694 69.37333307 -11.42074465 73.92299781 -11.47490501 78.47276688 C-11.5175993 81.97966741 -11.56504651 85.4864908 -11.61400223 88.99330902 C-11.63692965 90.67269792 -11.65843551 92.35210684 -11.67850876 94.03153229 C-11.70714197 96.36259166 -11.74208398 98.69347007 -11.77880859 101.02441406 C-11.7861351 101.72040207 -11.79346161 102.41639008 -11.80101013 103.13346863 C-11.88568613 107.88568613 -11.88568613 107.88568613 -13 109 C-14.40348735 109.09860131 -15.81180477 109.13078937 -17.21875 109.1328125 C-18.49298828 109.13474609 -18.49298828 109.13474609 -19.79296875 109.13671875 C-20.68628906 109.13285156 -21.57960938 109.12898438 -22.5 109.125 C-23.39332031 109.12886719 -24.28664063 109.13273437 -25.20703125 109.13671875 C-26.05652344 109.13542969 -26.90601563 109.13414062 -27.78125 109.1328125 C-28.56564453 109.13168457 -29.35003906 109.13055664 -30.15820312 109.12939453 C-32 109 -32 109 -33 108 C-33.09543095 106.60856311 -33.12188575 105.21231633 -33.12025452 103.81761169 C-33.12162918 102.91592255 -33.12300385 102.0142334 -33.12442017 101.08522034 C-33.12082489 100.08828659 -33.11722961 99.09135284 -33.11352539 98.06420898 C-33.11367142 97.02043091 -33.11381744 95.97665283 -33.1139679 94.90124512 C-33.11326826 91.43284057 -33.10547353 87.96448897 -33.09765625 84.49609375 C-33.09579225 82.09855682 -33.09436826 79.7010195 -33.09336853 77.30348206 C-33.08954194 70.97904416 -33.07971046 64.65462906 -33.06866455 58.3302002 C-33.05845345 51.88224598 -33.05387156 45.43428809 -33.04882812 38.98632812 C-33.03808831 26.3242071 -33.02049038 13.66210901 -33 1 C-22.11 0.67 -11.22 0.34 0 0 Z " fill="#6E869F" transform="translate(287,133)"/>
<path d="M0 0 C-3.63 0 -7.26 0 -11 0 C-10.96970703 1.59577881 -10.93941406 3.19155762 -10.90820312 4.83569336 C-10.79402489 10.8836651 -10.68297056 16.9316912 -10.57275391 22.97973633 C-10.52507381 25.57350158 -10.47660008 28.16725239 -10.42724609 30.76098633 C-10.10288759 47.84276433 -9.92542779 64.91507698 -10 82 C-9.34 82.33 -8.68 82.66 -8 83 C-8.4640625 84.36125 -8.4640625 84.36125 -8.9375 85.75 C-10.54448457 90.66548222 -11.11469311 94.53068876 -11.0625 99.75 C-11.05347656 100.92046875 -11.04445313 102.0909375 -11.03515625 103.296875 C-11.02355469 104.18890625 -11.01195312 105.0809375 -11 106 C-10.34 106.33 -9.68 106.66 -9 107 C-10.9375 106.625 -10.9375 106.625 -13 106 C-14.14896129 103.70207742 -14.12570801 102.41753259 -14.12698364 99.8626709 C-14.12980347 98.99615402 -14.13262329 98.12963715 -14.13552856 97.23686218 C-14.13350433 96.28406876 -14.1314801 95.33127533 -14.12939453 94.34960938 C-14.13114685 93.34791214 -14.13289917 92.3462149 -14.13470459 91.31416321 C-14.13911929 87.99067471 -14.13618644 84.66723908 -14.1328125 81.34375 C-14.13348565 79.04211415 -14.13445577 76.74047838 -14.13571167 74.43884277 C-14.13718812 69.61010055 -14.13503575 64.7813768 -14.13037109 59.95263672 C-14.12467385 53.75148804 -14.12795313 47.55038263 -14.13394356 41.34923553 C-14.13755057 36.5950284 -14.13640993 31.84083159 -14.13381577 27.08662415 C-14.13314689 24.79958593 -14.13397356 22.51254678 -14.13629532 20.22550964 C-14.13882412 17.03377791 -14.13497798 13.84211706 -14.12939453 10.65039062 C-14.13141876 9.6975972 -14.13344299 8.74480377 -14.13552856 7.76313782 C-14.13270874 6.89662094 -14.12988892 6.03010406 -14.12698364 5.1373291 C-14.12660662 4.38221291 -14.12622959 3.62709671 -14.12584114 2.84909821 C-14 1 -14 1 -13 -1 C-10.8203125 -1.484375 -10.8203125 -1.484375 -8.125 -1.75 C-7.24070312 -1.84796875 -6.35640625 -1.9459375 -5.4453125 -2.046875 C-3 -2 -3 -2 0 0 Z " fill="#8D1D29" transform="translate(472,135)"/>
<path d="M0 0 C0.66 0 1.32 0 2 0 C1.43811897 4.9794284 -0.87720638 8.64614055 -3.375 12.875 C-6.2721881 17.8189113 -8.84836795 22.6833866 -11 28 C-7.20771856 27.89047884 -3.4164616 27.75976759 0.375 27.625 C1.45523438 27.5940625 2.53546875 27.563125 3.6484375 27.53125 C4.6796875 27.49257812 5.7109375 27.45390625 6.7734375 27.4140625 C7.72653809 27.3826416 8.67963867 27.3512207 9.66162109 27.31884766 C12.18895176 27.21444204 12.18895176 27.21444204 14 25 C14.70710678 23.35008418 15.37943989 21.68437744 16 20 C16.66 20.33 17.32 20.66 18 21 C17.01 23.97 16.02 26.94 15 30 C12.03 29.67 9.06 29.34 6 29 C6 29.66 6 30.32 6 31 C2.98968256 31.93423645 2.13349732 32.04449911 -1 31 C-5.13523019 31.36921698 -7.5143254 31.67621693 -11 34 C-13.6875 34.125 -13.6875 34.125 -16 34 C-16 32.68 -16 31.36 -16 30 C-15.01 29.67 -14.02 29.34 -13 29 C-13.66 28.443125 -14.32 27.88625 -15 27.3125 C-17 25 -17 25 -17.25 22.25 C-17.1675 21.5075 -17.085 20.765 -17 20 C-15.906875 19.608125 -14.81375 19.21625 -13.6875 18.8125 C-10.05207151 17.28063598 -8.77886169 15.55772338 -7 12 C-6.34 11.67 -5.68 11.34 -5 11 C-4.690625 9.906875 -4.38125 8.81375 -4.0625 7.6875 C-3.09968207 4.34595543 -2.37471254 2.47365889 0 0 Z " fill="#811B28" transform="translate(553,198)"/>
<path d="M0 0 C-0.33 0.66 -0.66 1.32 -1 2 C0.97536745 1.65213292 0.97536745 1.65213292 3 1 C3.33 0.34 3.66 -0.32 4 -1 C9.45625 -0.39375 9.45625 -0.39375 11.8125 1.3125 C13.28105387 3.39939234 13.85688298 4.42389359 14 7 C12.75 10.6875 12.75 10.6875 11 14 C10.01 14.33 9.02 14.66 8 15 C6.77030122 18.51190809 6.77030122 18.51190809 6 22 C5.01 22 4.02 22 3 22 C2.95101562 22.63808594 2.90203125 23.27617187 2.8515625 23.93359375 C2.77679687 24.75988281 2.70203125 25.58617187 2.625 26.4375 C2.55539062 27.26121094 2.48578125 28.08492187 2.4140625 28.93359375 C2.27742187 29.61550781 2.14078125 30.29742187 2 31 C1.01 31.495 1.01 31.495 0 32 C0 31.34 0 30.68 0 30 C-0.66 30 -1.32 30 -2 30 C-1.67 28.68 -1.34 27.36 -1 26 C-0.34 26 0.32 26 1 26 C1.103125 25.28972656 1.20625 24.57945312 1.3125 23.84765625 C2.08652446 20.64161174 3.35088905 18.28776628 5 15.4375 C6.83315433 12.26032626 8.19543984 9.56786376 9 6 C7.10314453 6.05220703 7.10314453 6.05220703 5.16796875 6.10546875 C3.50782577 6.13360677 1.84766844 6.16090691 0.1875 6.1875 C-1.06256836 6.22520508 -1.06256836 6.22520508 -2.33789062 6.26367188 C-3.54155273 6.27817383 -3.54155273 6.27817383 -4.76953125 6.29296875 C-5.87711792 6.31653442 -5.87711792 6.31653442 -7.00708008 6.34057617 C-9.52230522 5.91074167 -10.39441516 4.92536938 -12 3 C-11 1 -11 1 -9.2578125 0.33203125 C-8.55398438 0.16058594 -7.85015625 -0.01085937 -7.125 -0.1875 C-6.42632813 -0.36667969 -5.72765625 -0.54585937 -5.0078125 -0.73046875 C-3 -1 -3 -1 0 0 Z " fill="#DE1627" transform="translate(547,145)"/>
<path d="M0 0 C1.27352856 2.54705712 0.7252564 3.30915821 0 6 C-0.28579441 9.1632738 -0.32232704 12.32525709 -0.375 15.5 C-0.41238281 16.35464844 -0.44976563 17.20929688 -0.48828125 18.08984375 C-0.58889755 23.35309867 -0.58889755 23.35309867 2.32421875 27.62890625 C4.98662329 29.33309154 4.98662329 29.33309154 8.1875 28.4375 C11.24307478 27.1645271 11.24307478 27.1645271 13 24 C13.66 24 14.32 24 15 24 C14.46246904 30.18160604 12.45417612 35.326858 10 41 C7.625 40.75 7.625 40.75 5 40 C3.87890625 38.27734375 3.87890625 38.27734375 3 36 C1.45343328 33.24735738 -0.09901353 30.49831118 -1.66015625 27.75390625 C-5.60966092 19.63611969 -4.40946363 11.28179919 -1.75390625 2.96875 C-1 1 -1 1 0 0 Z " fill="#E9091D" transform="translate(520,125)"/>
<path d="M0 0 C0.10808032 7.09727428 -0.06145994 13.96094956 -1 21 C3.62 20.67 8.24 20.34 13 20 C12.67 13.4 12.34 6.8 12 0 C17.40220719 -1.3505518 20.27144373 0.35374374 25 3 C27.5625 5.25 27.5625 5.25 29 7 C28.01 7 27.02 7 26 7 C26 6.34 26 5.68 26 5 C21.545 4.01 21.545 4.01 17 3 C17 2.34 17 1.68 17 1 C16.01 1 15.02 1 14 1 C14.05329468 1.94637329 14.05329468 1.94637329 14.10766602 2.91186523 C14.26467409 5.75347554 14.4136919 8.595449 14.5625 11.4375 C14.64661133 12.92733398 14.64661133 12.92733398 14.73242188 14.44726562 C14.78076172 15.39150391 14.82910156 16.33574219 14.87890625 17.30859375 C14.9260376 18.18314209 14.97316895 19.05769043 15.02172852 19.95874023 C15 22 15 22 14 23 C11.48863896 23.09975032 9.01096585 23.13882183 6.5 23.125 C5.79746094 23.12886719 5.09492187 23.13273437 4.37109375 23.13671875 C-0.87338622 23.12661378 -0.87338622 23.12661378 -2 22 C-2.08669432 20.5112814 -2.10703494 19.018555 -2.09765625 17.52734375 C-2.09443359 16.62822266 -2.09121094 15.72910156 -2.08789062 14.80273438 C-2.07951172 13.85720703 -2.07113281 12.91167969 -2.0625 11.9375 C-2.05798828 10.98810547 -2.05347656 10.03871094 -2.04882812 9.06054688 C-2.0370011 6.70696935 -2.02052025 4.35351523 -2 2 C-4.31 2.33 -6.62 2.66 -9 3 C-9.33 3.99 -9.66 4.98 -10 6 C-10.61875 6.12375 -11.2375 6.2475 -11.875 6.375 C-14.25166725 6.83065572 -14.25166725 6.83065572 -15.625 9.375 C-16.07875 10.24125 -16.5325 11.1075 -17 12 C-17.99 13.485 -17.99 13.485 -19 15 C-19.99 14.67 -20.98 14.34 -22 14 C-19.18273165 7.08488678 -12.83554076 2.91777038 -6.375 -0.3125 C-3.72799401 -1.07873858 -2.58359134 -0.75763543 0 0 Z " fill="#D73543" transform="translate(543,110)"/>
<path d="M0 0 C0.33 0 0.66 0 1 0 C1.14536172 4.97631945 1.28761199 9.95271576 1.42724609 14.92919922 C1.47493867 16.61444369 1.5234133 18.29966625 1.57275391 19.98486328 C1.64442497 22.43776878 1.71307317 24.89074516 1.78125 27.34375 C1.80312378 28.07049927 1.82499756 28.79724854 1.84753418 29.54602051 C2.05935586 37.37063664 2 45.16142788 2 53 C14.54 52.67 27.08 52.34 40 52 C40.66 47.05 41.32 42.1 42 37 C42.33 37 42.66 37 43 37 C43.19384179 39.81219705 43.38036603 42.62454196 43.5625 45.4375 C43.64661133 46.64116211 43.64661133 46.64116211 43.73242188 47.86914062 C43.8616295 49.91062111 43.9351273 51.95546369 44 54 C43 55 43 55 41.24729919 55.12025452 C40.48562943 55.11803391 39.72395966 55.11581329 38.93920898 55.11352539 C38.06631226 55.11340454 37.19341553 55.11328369 36.29406738 55.11315918 C34.90907043 55.10548523 34.90907043 55.10548523 33.49609375 55.09765625 C32.6517981 55.09664917 31.80750244 55.09564209 30.93762207 55.09460449 C27.77090098 55.0893557 24.60419919 55.07539456 21.4375 55.0625 C14.363125 55.041875 7.28875 55.02125 0 55 C0 36.85 0 18.7 0 0 Z " fill="#496176" transform="translate(410,187)"/>
<path d="M0 0 C6.05962213 6.2074178 8.44079607 12.01249613 8.546875 20.609375 C8.56719788 21.41739563 8.58752075 22.22541626 8.60845947 23.05792236 C8.64848052 24.75543029 8.6817113 26.45311054 8.70849609 28.15087891 C8.75009723 30.75608911 8.81272269 33.36015297 8.87890625 35.96484375 C8.91528292 37.61716108 8.95048086 39.26950488 8.984375 40.921875 C9.0019989 41.70205994 9.0196228 42.48224487 9.03778076 43.28607178 C9.11690123 48.76619753 9.11690123 48.76619753 8 51 C1.4 51 -5.2 51 -12 51 C-11.67 50.01 -11.34 49.02 -11 48 C-11 48.66 -11 49.32 -11 50 C-5.06 50 0.88 50 7 50 C6.4740625 47.89625 6.4740625 47.89625 5.9375 45.75 C5.07640163 42.30560653 5.15251775 40.389929 6 37 C6.14298131 35.3413488 6.24541225 33.6789131 6.31640625 32.015625 C6.35830078 31.08105469 6.40019531 30.14648438 6.44335938 29.18359375 C6.48267578 28.21550781 6.52199219 27.24742187 6.5625 26.25 C6.60568359 25.26644531 6.64886719 24.28289062 6.69335938 23.26953125 C6.79922052 20.84648725 6.90130171 18.4233446 7 16 C6.01 16.33 5.02 16.66 4 17 C3.93941406 16.25363281 3.87882812 15.50726563 3.81640625 14.73828125 C2.72737619 11.08560148 1.09886336 10.22838014 -2.0625 8.1875 C-2.98160156 7.58292969 -3.90070313 6.97835937 -4.84765625 6.35546875 C-5.55792969 5.90816406 -6.26820313 5.46085938 -7 5 C-6.625 3.0625 -6.625 3.0625 -6 1 C-4 0 -4 0 0 0 Z " fill="#9D2A37" transform="translate(504,191)"/>
<path d="M0 0 C13.2 0 26.4 0 40 0 C40 5.94 40 11.88 40 18 C36.1946875 18.2475 36.1946875 18.2475 32.3125 18.5 C31.12781128 18.57831055 31.12781128 18.57831055 29.91918945 18.65820312 C26.95301461 18.84722223 24.01571739 19.0001661 21.04296875 18.96875 C19.00511965 18.76281062 19.00511965 18.76281062 18 20 C17.91299658 21.63472882 17.89298937 23.27314055 17.90234375 24.91015625 C17.90717773 26.39418945 17.90717773 26.39418945 17.91210938 27.90820312 C17.92048828 28.94912109 17.92886719 29.99003906 17.9375 31.0625 C17.94201172 32.10728516 17.94652344 33.15207031 17.95117188 34.22851562 C17.96300073 36.81903454 17.98093681 39.40952422 18 42 C23.61 42.33 29.22 42.66 35 43 C35 43.33 35 43.66 35 44 C28.73 44 22.46 44 16 44 C16 35.09 16 26.18 16 17 C16.66 17 17.32 17 18 17 C18.33 16.34 18.66 15.68 19 15 C20.04800781 15.01160156 21.09601563 15.02320313 22.17578125 15.03515625 C23.55468572 15.04453655 24.93359211 15.0536365 26.3125 15.0625 C27.00279297 15.07087891 27.69308594 15.07925781 28.40429688 15.08789062 C31.5483025 15.10307906 33.99420019 15.00193327 37 14 C37.495 14.495 37.495 14.495 38 15 C38.33 10.38 38.66 5.76 39 1 C26.13 1 13.26 1 0 1 C0 0.67 0 0.34 0 0 Z " fill="#79919F" transform="translate(413,134)"/>
<path d="M0 0 C1.35439668 2.70879335 1.06501451 5.00933268 1 8 C0.01 8.495 0.01 8.495 -1 9 C-1.12375 9.969375 -1.2475 10.93875 -1.375 11.9375 C-1.684375 13.4534375 -1.684375 13.4534375 -2 15 C-2.639375 15.309375 -3.27875 15.61875 -3.9375 15.9375 C-6.39397042 16.90087196 -6.39397042 16.90087196 -7.125 20.3125 C-7.41375 21.529375 -7.7025 22.74625 -8 24 C-8.64199649 25.67632417 -9.29894157 27.34750513 -10 29 C-10.66 29 -11.32 29 -12 29 C-12.1546875 29.8971875 -12.1546875 29.8971875 -12.3125 30.8125 C-13 33 -13 33 -14.5625 34.375 C-16.33136725 36.03762133 -16.33136725 36.03762133 -16.1875 39.1875 C-16.125625 40.115625 -16.06375 41.04375 -16 42 C-17.98 41.34 -19.96 40.68 -22 40 C-20.54870359 36.2043017 -18.845225 32.61947982 -17 29 C-16.26977905 27.54219428 -15.54063732 26.08384755 -14.8125 24.625 C-14.20833333 23.41666667 -13.60416667 22.20833333 -13 21 C-12.34 21 -11.68 21 -11 21 C-10.01 17.535 -10.01 17.535 -9 14 C-8.34 14 -7.68 14 -7 14 C-6.773125 13.175 -6.54625 12.35 -6.3125 11.5 C-4.72573768 7.26863382 -2.49251763 3.74828987 0 0 Z " fill="#942D37" transform="translate(544,175)"/>
<path d="M0 0 C1.4606285 2.64738916 2 3.89448334 2 7 C1.01 7.66 0.02 8.32 -1 9 C-1.2773676 11.57385205 -1.37287588 13.87031753 -1.3125 16.4375 C-1.31572266 17.11876953 -1.31894531 17.80003906 -1.32226562 18.50195312 C-1.28242585 22.19980816 -1.0988558 23.85171631 1 27 C1 27.99 1 28.98 1 30 C2.32 30.33 3.64 30.66 5 31 C5.33 30.34 5.66 29.68 6 29 C5.505 31.475 5.505 31.475 5 34 C5.66 34.33 6.32 34.66 7 35 C7.12375 36.175625 7.12375 36.175625 7.25 37.375 C7.77137156 40.338545 7.77137156 40.338545 11.0625 41.8125 C12.031875 42.204375 13.00125 42.59625 14 43 C14 44.32 14 45.64 14 47 C12.02 46.34 10.04 45.68 8 45 C8 44.01 8 43.02 8 42 C7.401875 41.731875 6.80375 41.46375 6.1875 41.1875 C1.32109898 38.54573945 -0.798459 34.45804773 -2.9765625 29.5078125 C-4.23232397 25.20371403 -4.52070735 21.27696565 -4.5625 16.8125 C-4.57692139 16.06476318 -4.59134277 15.31702637 -4.60620117 14.54663086 C-4.50273515 8.78871522 -2.84250665 4.98992718 0 0 Z " fill="#85484F" transform="translate(521,216)"/>
<path d="M0 0 C5.61 0 11.22 0 17 0 C16.67 0.66 16.34 1.32 16 2 C13.6015625 2.37890625 13.6015625 2.37890625 10.625 2.5625 C7.46357425 2.76686657 5.01866352 2.99377883 2 4 C2.00523682 4.89565674 2.01047363 5.79131348 2.01586914 6.71411133 C2.14440539 32.49132423 1.70395055 58.23278876 1 84 C0.67 84 0.34 84 0 84 C-0.15366173 73.34314724 -0.3018435 62.68623389 -0.4429636 52.02920723 C-0.50865976 47.08111515 -0.57626756 42.13306436 -0.64819336 37.18505859 C-0.71749226 32.41298472 -0.78183609 27.64086776 -0.84269524 22.86867905 C-0.86683368 21.04493647 -0.89277967 19.22121692 -0.92053413 17.39752579 C-0.95900272 14.84985202 -0.99113439 12.30217328 -1.02172852 9.75439453 C-1.03467453 8.99482452 -1.04762054 8.23525452 -1.06095886 7.45266724 C-1.11405216 2.22810432 -1.11405216 2.22810432 0 0 Z " fill="#384D5F" transform="translate(226,134)"/>
<path d="M0 0 C10 2 10 2 14 5 C14.7578125 7.62890625 14.7578125 7.62890625 15.125 10.5625 C15.52832552 14.76512268 15.52832552 14.76512268 18 18 C17.70612057 20.00617696 17.36351571 22.00526507 17 24 C17.00678013 27.45447422 17.07093343 30.89107772 17.21484375 34.34179688 C17.32431486 39.63124199 17.32431486 39.63124199 15.48388672 41.72387695 C14.9942041 42.14499756 14.50452148 42.56611816 14 43 C13.98018066 42.22922119 13.96036133 41.45844238 13.93994141 40.66430664 C13.84395546 37.13006151 13.73457671 33.59634883 13.625 30.0625 C13.5940625 28.85013672 13.563125 27.63777344 13.53125 26.38867188 C13.69052467 14.86471435 13.69052467 14.86471435 9 5 C6.69 4.67 4.38 4.34 2 4 C2 17.86 2 31.72 2 46 C1.67 46 1.34 46 1 46 C0.67 30.82 0.34 15.64 0 0 Z " fill="#AA5762" transform="translate(478,195)"/>
<path d="M0 0 C1.39456452 0.00667256 2.78911118 0.01863093 4.18359375 0.03515625 C4.89451172 0.03966797 5.60542969 0.04417969 6.33789062 0.04882812 C8.09899388 0.06064761 9.86005411 0.07858362 11.62109375 0.09765625 C11.95109375 2.07765625 12.28109375 4.05765625 12.62109375 6.09765625 C11.63109375 6.59265625 11.63109375 6.59265625 10.62109375 7.09765625 C9.63109375 6.10765625 8.64109375 5.11765625 7.62109375 4.09765625 C3.16609375 3.10765625 3.16609375 3.10765625 -1.37890625 2.09765625 C-1.37890625 11.99765625 -1.37890625 21.89765625 -1.37890625 32.09765625 C4.27646141 31.03526154 4.27646141 31.03526154 9.62109375 29.09765625 C9.62109375 30.08765625 9.62109375 31.07765625 9.62109375 32.09765625 C6.73898073 33.05836059 4.92259331 33.20347508 1.93359375 33.16015625 C0.51046875 33.13953125 -0.91265625 33.11890625 -2.37890625 33.09765625 C-2.70890625 28.47765625 -3.03890625 23.85765625 -3.37890625 19.09765625 C-3.70890625 19.09765625 -4.03890625 19.09765625 -4.37890625 19.09765625 C-4.40574612 16.11843032 -4.42566662 13.1394433 -4.44140625 10.16015625 C-4.44978516 9.31001953 -4.45816406 8.45988281 -4.46679688 7.58398438 C-4.47001953 6.77509766 -4.47324219 5.96621094 -4.4765625 5.1328125 C-4.48179932 4.38394775 -4.48703613 3.63508301 -4.49243164 2.86352539 C-4.28203621 -0.40914158 -3.35149431 0.096864 0 0 Z " fill="#CD444F" transform="translate(481.37890625,149.90234375)"/>
<path d="M0 0 C-3.63 0 -7.26 0 -11 0 C-10.99476318 1.15822266 -10.98952637 2.31644531 -10.98413086 3.50976562 C-10.96576807 7.88589681 -10.95445603 12.26202473 -10.94506836 16.63818359 C-10.94009853 18.51742123 -10.93332034 20.39665512 -10.92456055 22.27587891 C-10.87181624 33.89824102 -11.08535411 45.40967327 -12 57 C-12.66 57 -13.32 57 -14 57 C-14.02314782 49.73305527 -14.04092756 42.46611846 -14.05181217 35.19914436 C-14.05703565 31.82496974 -14.06412361 28.45082029 -14.07543945 25.07666016 C-14.08752436 21.19953741 -14.09323263 17.3224506 -14.09765625 13.4453125 C-14.10281754 12.23070343 -14.10797882 11.01609436 -14.11329651 9.76467896 C-14.11340981 8.08316238 -14.11340981 8.08316238 -14.11352539 6.36767578 C-14.115746 5.37728302 -14.11796661 4.38689026 -14.12025452 3.3664856 C-14 1 -14 1 -13 -1 C-10.8203125 -1.484375 -10.8203125 -1.484375 -8.125 -1.75 C-7.24070312 -1.84796875 -6.35640625 -1.9459375 -5.4453125 -2.046875 C-3 -2 -3 -2 0 0 Z " fill="#C3515C" transform="translate(472,135)"/>
<path d="M0 0 C0 0.33 0 0.66 0 1 C-4.29 1 -8.58 1 -13 1 C-13 1.66 -13 2.32 -13 3 C-13.86286621 2.75552124 -13.86286621 2.75552124 -14.74316406 2.50610352 C-16.95708107 2.00962472 -18.84673797 1.88520256 -21.109375 1.90234375 C-22.24052734 1.90717773 -22.24052734 1.90717773 -23.39453125 1.91210938 C-24.17183594 1.92048828 -24.94914062 1.92886719 -25.75 1.9375 C-26.54277344 1.94201172 -27.33554687 1.94652344 -28.15234375 1.95117188 C-30.10159508 1.96291435 -32.05080738 1.98084854 -34 2 C-34.15149298 5.62885324 -34.15149298 5.62885324 -33 9 C-33.66 9 -34.32 9 -35 9 C-34.649375 9.886875 -34.29875 10.77375 -33.9375 11.6875 C-32.95981608 15.14198318 -33.02299727 16.62489968 -34 20 C-34.185625 20.763125 -34.37125 21.52625 -34.5625 22.3125 C-34.706875 22.869375 -34.85125 23.42625 -35 24 C-35.33 24 -35.66 24 -36 24 C-36 16.08 -36 8.16 -36 0 C-30.555 -0.495 -30.555 -0.495 -25 -1 C-16.96095312 -3.67968229 -8.10101392 -1.55895801 0 0 Z " fill="#E02739" transform="translate(497,135)"/>
<path d="M0 0 C1.16867153 4.17919784 1.13269261 8.22201717 1.11352539 12.53222656 C1.11367142 13.39112488 1.11381744 14.25002319 1.1139679 15.13494873 C1.11327196 17.97019996 1.10549445 20.80538526 1.09765625 23.640625 C1.09579094 25.60788945 1.09436757 27.57515436 1.09336853 29.54241943 C1.08955227 34.71766444 1.07972956 39.89288133 1.06866455 45.06811523 C1.0584313 50.35009379 1.0538668 55.63207689 1.04882812 60.9140625 C1.03810651 71.27605401 1.02104075 81.63802467 1 92 C0.67 92 0.34 92 0 92 C-0.33 62.63 -0.66 33.26 -1 3 C-4.3 3 -7.6 3 -11 3 C-8.89427904 -1.21144191 -4.11694326 -0.07767817 0 0 Z " fill="#092840" transform="translate(318,148)"/>
<path d="M0 0 C0.99 0 1.98 0 3 0 C2.73896484 0.86431641 2.73896484 0.86431641 2.47265625 1.74609375 C1.97795959 4.10510179 2.07885858 5.69369554 2.4375 8.0625 C3.1291831 13.38313924 3.09011541 18.64313933 3 24 C1.41693353 24.16918268 -0.16646719 24.33523936 -1.75 24.5 C-2.63171875 24.5928125 -3.5134375 24.685625 -4.421875 24.78125 C-7 25 -7 25 -11 25 C-11 24.34 -11 23.68 -11 23 C-12.98 23.99 -12.98 23.99 -15 25 C-15.33 24.34 -15.66 23.68 -16 23 C-17.65 23 -19.3 23 -21 23 C-20.525625 22.360625 -20.05125 21.72125 -19.5625 21.0625 C-17.52968613 17.07818481 -17.2789471 13.41505926 -17 9 C-16.67 9 -16.34 9 -16 9 C-15.67 12.96 -15.34 16.92 -15 21 C-10.05 21 -5.1 21 0 21 C0 14.07 0 7.14 0 0 Z " fill="#F00B1E" transform="translate(557,111)"/>
<path d="M0 0 C2.97 0.495 2.97 0.495 6 1 C5.67 2.32 5.34 3.64 5 5 C1.7 4.34 -1.6 3.68 -5 3 C-5 12.57 -5 22.14 -5 32 C-1.7 31.34 1.6 30.68 5 30 C4.67 30.66 4.34 31.32 4 32 C2.68 32 1.36 32 0 32 C0 32.99 0 33.98 0 35 C-5.75 35.125 -5.75 35.125 -8 34 C-9.02168911 29.91324355 -8.83695138 27.05745239 -8 23 C-7.86081463 21.30842606 -7.7564164 19.61369627 -7.68359375 17.91796875 C-7.64169922 16.98662109 -7.59980469 16.05527344 -7.55664062 15.09570312 C-7.51732422 14.13599609 -7.47800781 13.17628906 -7.4375 12.1875 C-7.37272461 10.71893555 -7.37272461 10.71893555 -7.30664062 9.22070312 C-7.2009774 6.81392973 -7.09887673 4.40706017 -7 2 C-3.535 1.505 -3.535 1.505 0 1 C0 0.67 0 0.34 0 0 Z " fill="#41586B" transform="translate(372,148)"/>
<path d="M0 0 C7.08447735 6.69089528 10.21258236 12.31722376 11 22 C11 32.83120767 8.42592557 39.8320568 3 49 C2.34 48.01 1.68 47.02 1 46 C2.485 45.505 2.485 45.505 4 45 C4.75407101 42.69342986 5.411438 40.354248 6 38 C6.34546875 37.21753906 6.6909375 36.43507812 7.046875 35.62890625 C9.56474214 28.68413336 8.10431141 20.17802413 7 13 C6.01 12.67 5.02 12.34 4 12 C3.67 10.02 3.34 8.04 3 6 C2.01 5.67 1.02 5.34 0 5 C0 3.35 0 1.7 0 0 Z " fill="#D55566" transform="translate(572,117)"/>
<path d="M0 0 C0.66 0 1.32 0 2 0 C2 14.52 2 29.04 2 44 C-0.97 44 -3.94 44 -7 44 C-7 43.67 -7 43.34 -7 43 C-4.03 42.505 -4.03 42.505 -1 42 C0.03148495 25.65227342 0.03148495 25.65227342 -0.80859375 9.328125 C-1.07740903 6.05845343 -0.65522736 3.20333375 0 0 Z " fill="#871A26" transform="translate(477,197)"/>
<path d="M0 0 C3.95173157 1.97586579 5.48019226 7.03256181 7 11 C7.37632782 13.83379381 7.26559161 16.13161058 7 19 C6.38125 18.34 5.7625 17.68 5.125 17 C3.24362573 14.7715451 3.24362573 14.7715451 1 15 C1 12.69 1 10.38 1 8 C-1.31 8 -3.62 8 -6 8 C-3.375 2.25 -3.375 2.25 0 0 Z " fill="#914650" transform="translate(575,209)"/>
<path d="M0 0 C0.33 0 0.66 0 1 0 C1 9.57 1 19.14 1 29 C3.97 29 6.94 29 10 29 C7.80808632 31.19191368 6.88522592 31.27869352 4 32 C3.34 32.66 2.68 33.32 2 34 C0 33.875 0 33.875 -2 33 C-3.25 30.9375 -3.25 30.9375 -4 29 C-3.51031738 28.61263672 -3.02063477 28.22527344 -2.51611328 27.82617188 C-0.48023106 25.37393371 -0.66718514 23.93682358 -0.7421875 20.78125 C-0.75636719 19.76675781 -0.77054687 18.75226563 -0.78515625 17.70703125 C-0.81480469 16.64871094 -0.84445312 15.59039062 -0.875 14.5 C-0.91835239 12.40633443 -0.95760075 10.31257872 -0.9921875 8.21875 C-1.02868408 6.8255957 -1.02868408 6.8255957 -1.06591797 5.40429688 C-1 3 -1 3 0 0 Z " fill="#0B2E47" transform="translate(364,197)"/>
<path d="M0 0 C1.35439668 2.70879335 1.06501451 5.00933268 1 8 C0.01 8.495 0.01 8.495 -1 9 C-1.12375 9.969375 -1.2475 10.93875 -1.375 11.9375 C-1.58125 12.948125 -1.7875 13.95875 -2 15 C-3.9375 16.1875 -3.9375 16.1875 -6 17 C-6.66 17.99 -7.32 18.98 -8 20 C-8.66 20 -9.32 20 -10 20 C-10.268125 20.763125 -10.53625 21.52625 -10.8125 22.3125 C-11.94424112 24.87380884 -12.91223401 26.19692938 -15 28 C-14.42415568 25.61435923 -13.77772405 23.33317216 -13 21 C-12.34 21 -11.68 21 -11 21 C-10.01 17.535 -10.01 17.535 -9 14 C-8.34 14 -7.68 14 -7 14 C-6.773125 13.175 -6.54625 12.35 -6.3125 11.5 C-4.72573768 7.26863382 -2.49251763 3.74828987 0 0 Z " fill="#A61926" transform="translate(544,175)"/>
<path d="M0 0 C1.27370168 2.54740336 0.72210422 3.30790997 0 6 C-0.26208493 9.18442232 -0.27655729 12.36839116 -0.3125 15.5625 C-0.34150391 16.42552734 -0.37050781 17.28855469 -0.40039062 18.17773438 C-0.6097359 23.14049692 -0.6097359 23.14049692 2.01953125 27.08984375 C2.67308594 27.39019531 3.32664062 27.69054687 4 28 C3.67 30.31 3.34 32.62 3 35 C-2.91250511 27.67975558 -4.85655936 20.24793752 -4 11 C-1.91025641 1.91025641 -1.91025641 1.91025641 0 0 Z " fill="#DA505D" transform="translate(520,125)"/>
<path d="M0 0 C3.0188127 4.52821905 3.15331783 8.6402358 3.1875 14 C3.20167969 15.010625 3.21585938 16.02125 3.23046875 17.0625 C2.99304931 20.0885919 2.27324223 22.26227757 1 25 C0.01 25 -0.98 25 -2 25 C-1.9278125 24.24074219 -1.855625 23.48148438 -1.78125 22.69921875 C-1.6884375 21.70535156 -1.595625 20.71148437 -1.5 19.6875 C-1.4071875 18.70136719 -1.314375 17.71523437 -1.21875 16.69921875 C-0.95961143 13.95297861 -0.95961143 13.95297861 -1 11 C-0.814375 10.030625 -0.62875 9.06125 -0.4375 8.0625 C-0.02673175 5.18712226 -0.19711243 3.70974556 -1 1 C-0.67 0.67 -0.34 0.34 0 0 Z " fill="#EC0A1E" transform="translate(578,130)"/>
<path d="M0 0 C0.33 0 0.66 0 1 0 C1 2.31 1 4.62 1 7 C1.66 7 2.32 7 3 7 C2.67 8.32 2.34 9.64 2 11 C3.6260287 10.93999894 5.25101549 10.8512115 6.875 10.75 C7.77992188 10.70359375 8.68484375 10.6571875 9.6171875 10.609375 C10.40351563 10.40828125 11.18984375 10.2071875 12 10 C13.18019563 8.09794707 13.18019563 8.09794707 14 6 C14.99 5.34 15.98 4.68 17 4 C17.33 6.97 17.66 9.94 18 13 C12.06 13 6.12 13 0 13 C0 12.34 0 11.68 0 11 C-0.66 10.67 -1.32 10.34 -2 10 C-1.34 10 -0.68 10 0 10 C0 6.7 0 3.4 0 0 Z " fill="#641E26" transform="translate(493,228)"/>
<path d="M0 0 C0.66 0.33 1.32 0.66 2 1 C2.16743288 6.23256222 2.328011 11.46527227 2.48217773 16.69824219 C2.5356202 18.47922457 2.59095129 20.26015131 2.64819336 22.04101562 C2.73004181 24.59753417 2.8051453 27.15417445 2.87890625 29.7109375 C2.90594131 30.50994476 2.93297638 31.30895203 2.96083069 32.13217163 C3.11387171 37.77225659 3.11387171 37.77225659 2 40 C-4.6 40 -11.2 40 -18 40 C-17.67 39.01 -17.34 38.02 -17 37 C-17 37.66 -17 38.32 -17 39 C-11.06 39 -5.12 39 1 39 C0.4740625 36.89625 0.4740625 36.89625 -0.0625 34.75 C-1.12920448 30.48318206 -1.12920448 30.48318206 -0.52734375 28.23242188 C0.13876615 25.41255665 0.11185808 22.81904897 0.09765625 19.921875 C0.09282227 18.18164062 0.09282227 18.18164062 0.08789062 16.40625 C0.07951172 15.1996875 0.07113281 13.993125 0.0625 12.75 C0.05798828 11.52796875 0.05347656 10.3059375 0.04882812 9.046875 C0.03704815 6.03120054 0.02059853 3.01562502 0 0 Z " fill="#A1646B" transform="translate(510,202)"/>
<path d="M0 0 C3.8300785 3.44707065 5.73029829 6.43172055 6.2746582 11.61547852 C6.30285461 14.59823719 6.32176945 17.57958973 6.3125 20.5625 C6.32861328 21.60341797 6.34472656 22.64433594 6.36132812 23.71679688 C6.36197266 24.71904297 6.36261719 25.72128906 6.36328125 26.75390625 C6.36775269 28.12011108 6.36775269 28.12011108 6.37231445 29.51391602 C5.93540776 32.43130676 4.93116337 33.81415669 3 36 C3.2475 34.39125 3.2475 34.39125 3.5 32.75 C4.49150182 24.65991996 4.81090681 16.72999372 2 9 C1.34 9 0.68 9 0 9 C-0.84454356 5.62182575 -1.10844919 3.32534757 0 0 Z " fill="#C65056" transform="translate(510,145)"/>
<path d="M0 0 C0.66 0.33 1.32 0.66 2 1 C2 13.87 2 26.74 2 40 C-0.92776241 37.07223759 -0.37431602 33.93099381 -0.44921875 30 C-0.47095657 29.20851562 -0.4926944 28.41703125 -0.51509094 27.6015625 C-0.55902774 25.92719807 -0.5982231 24.25270355 -0.63305664 22.578125 C-0.68728895 20.00999407 -0.75746858 17.44267025 -0.83007812 14.875 C-0.87073658 13.25002337 -0.91048094 11.62502355 -0.94921875 10 C-0.96997971 9.22914063 -0.99074066 8.45828125 -1.01213074 7.6640625 C-1.11589339 2.23178679 -1.11589339 2.23178679 0 0 Z " fill="#0E2C43" transform="translate(101,150)"/>
<path d="M0 0 C6.55964547 0.59121268 10.94750392 2.91500317 16 7 C15.01 7.33 14.02 7.66 13 8 C13 7.34 13 6.68 13 6 C10.03 5.34 7.06 4.68 4 4 C4 3.34 4 2.68 4 2 C3.01 2 2.02 2 1 2 C1.33 8.93 1.66 15.86 2 23 C-2.11320291 23.82264058 -4.33123788 24.04025145 -8.3125 23.5625 C-9.19550781 23.46066406 -10.07851563 23.35882813 -10.98828125 23.25390625 C-11.65214844 23.17011719 -12.31601562 23.08632812 -13 23 C-13 22.67 -13 22.34 -13 22 C-6.565 21.505 -6.565 21.505 0 21 C-0.08378906 19.56785156 -0.16757812 18.13570312 -0.25390625 16.66015625 C-0.35704481 14.79428596 -0.45989452 12.92839968 -0.5625 11.0625 C-0.61857422 10.11697266 -0.67464844 9.17144531 -0.73242188 8.19726562 C-0.78076172 7.29814453 -0.82910156 6.39902344 -0.87890625 5.47265625 C-0.9260376 4.64000244 -0.97316895 3.80734863 -1.02172852 2.94946289 C-1 1 -1 1 0 0 Z " fill="#E3707A" transform="translate(556,109)"/>
<path d="M0 0 C0.66 0 1.32 0 2 0 C0.71886268 4.86832181 -1.51993784 8.68827412 -4.13671875 12.921875 C-6.46955012 16.77569286 -8.67464638 20.6944649 -10.875 24.625 C-11.28049072 25.34864746 -11.68598145 26.07229492 -12.10375977 26.81787109 C-13.07034906 28.54458968 -14.03534685 30.27219902 -15 32 C-16.04449911 28.86650268 -15.93423645 28.01031744 -15 25 C-14.34 25.33 -13.68 25.66 -13 26 C-13 24.68 -13 23.36 -13 22 C-12.34 22 -11.68 22 -11 22 C-11 20.35 -11 18.7 -11 17 C-10.34 16.67 -9.68 16.34 -9 16 C-9 15.01 -9 14.02 -9 13 C-8.01 13 -7.02 13 -6 13 C-5.67 10.69 -5.34 8.38 -5 6 C-4.34 6 -3.68 6 -3 6 C-2.01 4.02 -1.02 2.04 0 0 Z " fill="#BB4B56" transform="translate(572,166)"/>
<path d="M0 0 C2.375 0.3125 2.375 0.3125 5 1 C7.48233348 4.72350022 7.54322777 7.68566933 7 12 C6.19002181 14.49079999 5.17696713 16.64606575 4 19 C3.34 19 2.68 19 2 19 C1.67 17.02 1.34 15.04 1 13 C1.66 13 2.32 13 3 13 C3 12.34 3 11.68 3 11 C2.34 10.67 1.68 10.34 1 10 C1.66 9.67 2.32 9.34 3 9 C3.33 8.01 3.66 7.02 4 6 C3.34 6 2.68 6 2 6 C2 5.34 2 4.68 2 4 C1.34 4 0.68 4 0 4 C0 2.68 0 1.36 0 0 Z " fill="#6F1B25" transform="translate(576,225)"/>
<path d="M0 0 C0.33 0 0.66 0 1 0 C1.12375 1.11375 1.2475 2.2275 1.375 3.375 C1.6465813 7.03103677 1.6465813 7.03103677 4 9 C3.70612057 11.00617696 3.36351571 13.00526507 3 15 C3.00678013 18.45447422 3.07093343 21.89107772 3.21484375 25.34179688 C3.2578125 27.41796875 3.2578125 27.41796875 3 31 C1.515 32.485 1.515 32.485 0 34 C0 22.78 0 11.56 0 0 Z " fill="#93414A" transform="translate(492,204)"/>
<path d="M0 0 C1.98 0 3.96 0 6 0 C5.8864371 1.64666203 5.75882619 3.29236082 5.625 4.9375 C5.55539062 5.85402344 5.48578125 6.77054688 5.4140625 7.71484375 C5.27742187 8.46894531 5.14078125 9.22304687 5 10 C4.01 10.495 4.01 10.495 3 11 C2.26924352 13.3140622 1.59861742 15.64828869 1 18 C0.01 18 -0.98 18 -2 18 C-2.04898438 18.63808594 -2.09796875 19.27617187 -2.1484375 19.93359375 C-2.22320313 20.75988281 -2.29796875 21.58617187 -2.375 22.4375 C-2.44460938 23.26121094 -2.51421875 24.08492187 -2.5859375 24.93359375 C-2.72257813 25.61550781 -2.85921875 26.29742187 -3 27 C-3.66 27.33 -4.32 27.66 -5 28 C-5 27.34 -5 26.68 -5 26 C-5.66 26 -6.32 26 -7 26 C-6.67 24.68 -6.34 23.36 -6 22 C-5.34 22 -4.68 22 -4 22 C-3.896875 21.28972656 -3.79375 20.57945312 -3.6875 19.84765625 C-2.91347554 16.64161174 -1.64911095 14.28776628 0 11.4375 C1.81243649 8.29623388 3.32606329 5.58028877 4 2 C2.68 1.34 1.36 0.68 0 0 Z " fill="#D14A57" transform="translate(552,149)"/>
<path d="M0 0 C0.66 0.33 1.32 0.66 2 1 C1.01 3.97 0.02 6.94 -1 10 C-3.97 9.67 -6.94 9.34 -10 9 C-10 9.66 -10 10.32 -10 11 C-13.01031744 11.93423645 -13.86650268 12.04449911 -17 11 C-17.99 11 -18.98 11 -20 11 C-20 10.34 -20 9.68 -20 9 C-21.98 9 -23.96 9 -26 9 C-26 8.67 -26 8.34 -26 8 C-25.01604248 7.970271 -25.01604248 7.970271 -24.01220703 7.93994141 C-21.04938931 7.84487493 -18.08729468 7.73512248 -15.125 7.625 C-13.57619141 7.57859375 -13.57619141 7.57859375 -11.99609375 7.53125 C-10.51689453 7.47324219 -10.51689453 7.47324219 -9.0078125 7.4140625 C-7.64100342 7.36693115 -7.64100342 7.36693115 -6.24658203 7.31884766 C-3.80068814 7.20117489 -3.80068814 7.20117489 -2 5 C-1.29289322 3.35008418 -0.62056011 1.68437744 0 0 Z " fill="#99575E" transform="translate(569,218)"/>
<path d="M0 0 C4.75 0.75 4.75 0.75 7 3 C14.66942342 5.30082703 22.0395089 5.20382481 30 5 C27.7456259 7.2543741 26.16277508 7.92338304 22.984375 8.1328125 C15.61987659 8.10706251 9.56427281 7.68239694 3 4 C3 3.34 3 2.68 3 2 C2.01 1.67 1.02 1.34 0 1 C0 0.67 0 0.34 0 0 Z " fill="#4A6273" transform="translate(201,236)"/>
<path d="M0 0 C5.61 0 11.22 0 17 0 C17.33 3.63 17.66 7.26 18 11 C17.01 11.495 17.01 11.495 16 12 C15.5316735 14.58605332 15.5316735 14.58605332 15.375 17.5625 C15.30023437 18.57441406 15.22546875 19.58632813 15.1484375 20.62890625 C15.09945312 21.41136719 15.05046875 22.19382812 15 23 C14.67 23 14.34 23 14 23 C13.80644787 15.34393782 13.6520257 8.33741969 16 1 C11.05 1.33 6.1 1.66 1 2 C0.67 1.34 0.34 0.68 0 0 Z " fill="#C29195" transform="translate(542,243)"/>
<path d="M0 0 C0.33 0 0.66 0 1 0 C1.95261487 4.76307437 2.08333357 9.1666528 2 14 C-0.64 13.67 -3.28 13.34 -6 13 C-5.566875 12.525625 -5.13375 12.05125 -4.6875 11.5625 C-2.31953016 7.96669395 -1.23528236 4.10008613 0 0 Z " fill="#73343B" transform="translate(542,251)"/>
<path d="M0 0 C2.97 0.495 2.97 0.495 6 1 C5.67 2.32 5.34 3.64 5 5 C1.7 4.34 -1.6 3.68 -5 3 C-5.33 9.93 -5.66 16.86 -6 24 C-6.33 24 -6.66 24 -7 24 C-7 16.74 -7 9.48 -7 2 C-3.535 1.505 -3.535 1.505 0 1 C0 0.67 0 0.34 0 0 Z " fill="#889CAA" transform="translate(372,148)"/>
<path d="M0 0 C0.33 0 0.66 0 1 0 C1.33 3.96 1.66 7.92 2 12 C3.93875 12.12375 5.8775 12.2475 7.875 12.375 C13.75 12.75 13.75 12.75 16 15 C12.56484998 15.62457273 9.50935186 16 6 16 C6 15.34 6 14.68 6 14 C4.02 14.99 4.02 14.99 2 16 C1.67 15.34 1.34 14.68 1 14 C-0.65 14 -2.3 14 -4 14 C-3.525625 13.360625 -3.05125 12.72125 -2.5625 12.0625 C-0.52968613 8.07818481 -0.2789471 4.41505926 0 0 Z " fill="#F1091D" transform="translate(540,120)"/>
<path d="M0 0 C8.74074074 8.25514403 8.74074074 8.25514403 9.24609375 13.60546875 C9.24958917 16.08372121 9.17583979 18.52847405 9 21 C8.67 21 8.34 21 8 21 C7.67 18.36 7.34 15.72 7 13 C6.01 12.67 5.02 12.34 4 12 C3.67 10.02 3.34 8.04 3 6 C2.01 5.67 1.02 5.34 0 5 C0 3.35 0 1.7 0 0 Z " fill="#E13F4D" transform="translate(572,117)"/>
<path d="M0 0 C1.32 0 2.64 0 4 0 C4 0.66 4 1.32 4 2 C3.34 2 2.68 2 2 2 C2.00523682 2.80743652 2.01047363 3.61487305 2.01586914 4.44677734 C2.03659929 8.08951038 2.04964749 11.73223102 2.0625 15.375 C2.07087891 16.64601562 2.07925781 17.91703125 2.08789062 19.2265625 C2.09111328 20.43828125 2.09433594 21.65 2.09765625 22.8984375 C2.10289307 24.01911621 2.10812988 25.13979492 2.11352539 26.29443359 C2 29 2 29 1 31 C0.34 31 -0.32 31 -1 31 C-0.83701416 30.30237549 -0.67402832 29.60475098 -0.50610352 28.88598633 C0.0347624 25.80177214 0.113076 22.95442796 0.09765625 19.82421875 C0.09443359 18.66728516 0.09121094 17.51035156 0.08789062 16.31835938 C0.07532227 14.52108398 0.07532227 14.52108398 0.0625 12.6875 C0.05798828 11.46998047 0.05347656 10.25246094 0.04882812 8.99804688 C0.03706578 5.99864774 0.02062826 2.99934911 0 0 Z " fill="#0B2C45" transform="translate(427,149)"/>
<path d="M0 0 C0.66 0 1.32 0 2 0 C1.46246904 6.18160604 -0.54582388 11.326858 -3 17 C-5.41796875 16.66015625 -5.41796875 16.66015625 -8 16 C-9.3125 13.4375 -9.3125 13.4375 -10 11 C-9.401875 11.309375 -8.80375 11.61875 -8.1875 11.9375 C-5.91043228 13.10209704 -5.91043228 13.10209704 -3 14 C-3.04125 12.72125 -3.0825 11.4425 -3.125 10.125 C-3.1953125 7.9453125 -3.1953125 7.9453125 -3 6 C-2.34 5.34 -1.68 4.68 -1 4 C-0.3574765 1.93125966 -0.3574765 1.93125966 0 0 Z " fill="#D3444F" transform="translate(533,149)"/>
<path d="M0 0 C0.33 1.65 0.66 3.3 1 5 C-1.97 6.32 -4.94 7.64 -8 9 C-7.4740625 7.329375 -7.4740625 7.329375 -6.9375 5.625 C-5.62760669 2.19735524 -5.62760669 2.19735524 -7 0 C-3.86650268 -1.04449911 -3.01031744 -0.93423645 0 0 Z " fill="#771D25" transform="translate(576,217)"/>
<path d="M0 0 C0.33 0 0.66 0 1 0 C1.06058594 0.59167969 1.12117188 1.18335938 1.18359375 1.79296875 C1.54876528 5.23681719 1.91808888 8.60682663 2.625 12 C2.810625 12.99 2.810625 12.99 3 14 C2.67 14.33 2.34 14.66 2 15 C1.92741054 17.18639453 1.91626217 19.37500389 1.9375 21.5625 C1.94652344 22.76003906 1.95554687 23.95757812 1.96484375 25.19140625 C1.97644531 26.11824219 1.98804688 27.04507813 2 28 C2.66 28.33 3.32 28.66 4 29 C2.0625 28.625 2.0625 28.625 0 28 C-1.3241409 25.35171821 -1.12957042 23.33319888 -1.1328125 20.37109375 C-1.13410156 19.25412109 -1.13539063 18.13714844 -1.13671875 16.98632812 C-1.13285156 15.81521484 -1.12898438 14.64410156 -1.125 13.4375 C-1.12886719 12.26251953 -1.13273437 11.08753906 -1.13671875 9.87695312 C-1.13542969 8.76126953 -1.13414062 7.64558594 -1.1328125 6.49609375 C-1.13168457 5.46669678 -1.13055664 4.4372998 -1.12939453 3.37670898 C-1 1 -1 1 0 0 Z " fill="#90535A" transform="translate(459,213)"/>
<path d="M0 0 C0.66 0 1.32 0 2 0 C2 9.9 2 19.8 2 30 C-0.18278338 25.63443325 -0.18460502 23.60390111 -0.0625 18.8125 C0.0194213 14.39463952 0.00952696 10.07780689 -0.5625 5.6875 C-1 2 -1 2 0 0 Z " fill="#092940" transform="translate(427,194)"/>
<path d="M0 0 C1.1482685 2.296537 1.11561175 3.58313167 1.09765625 6.1328125 C1.09443359 6.93847656 1.09121094 7.74414062 1.08789062 8.57421875 C1.07951172 9.41597656 1.07113281 10.25773438 1.0625 11.125 C1.05798828 11.97449219 1.05347656 12.82398438 1.04882812 13.69921875 C1.03702874 15.79950909 1.01909306 17.8997633 1 20 C0.67 20 0.34 20 0 20 C-0.33 14.39 -0.66 8.78 -1 3 C-4.6196875 2.9690625 -4.6196875 2.9690625 -8.3125 2.9375 C-9.44619019 2.92384399 -9.44619019 2.92384399 -10.6027832 2.90991211 C-13.6839493 2.89712034 -16.05605196 3.01868399 -19 4 C-18.67 3.01 -18.34 2.02 -18 1 C-15.56257869 0.83210874 -13.12507454 0.66563867 -10.6875 0.5 C-9.99720703 0.45230469 -9.30691406 0.40460938 -8.59570312 0.35546875 C-5.72337641 0.16120511 -2.87986212 0 0 0 Z " fill="#237280" transform="translate(166,134)"/>
<path d="M0 0 C0.33 0.66 0.66 1.32 1 2 C1.66 2 2.32 2 3 2 C3.33 1.34 3.66 0.68 4 0 C6 3.75 6 3.75 6 6 C-0.435 6.495 -0.435 6.495 -7 7 C-6 4 -6 4 -4.0625 2.9375 C-3.381875 2.628125 -2.70125 2.31875 -2 2 C-1.34 1.34 -0.68 0.68 0 0 Z " fill="#E10B1F" transform="translate(483,144)"/>
<path d="M0 0 C0.66 0 1.32 0 2 0 C1.39733215 4.50727647 -0.36599794 7.8587963 -2.5625 11.8125 C-3.0565332 12.7087207 -3.0565332 12.7087207 -3.56054688 13.62304688 C-4.36773267 15.08533998 -5.18304917 16.5431399 -6 18 C-6.33 18 -6.66 18 -7 18 C-7 16.02 -7 14.04 -7 12 C-6.34 11.67 -5.68 11.34 -5 11 C-4.690625 9.906875 -4.38125 8.81375 -4.0625 7.6875 C-3.09968207 4.34595543 -2.37471254 2.47365889 0 0 Z " fill="#A14D55" transform="translate(553,198)"/>
<path d="M0 0 C0.33 0 0.66 0 1 0 C0.74515043 6.44769407 0.31454432 11.03173685 -4 16 C-4.66 16 -5.32 16 -6 16 C-5.125 8.25 -5.125 8.25 -4 6 C-3.01 6 -2.02 6 -1 6 C-0.67 4.02 -0.34 2.04 0 0 Z " fill="#874F57" transform="translate(581,238)"/>
<path d="M0 0 C0.66 0.33 1.32 0.66 2 1 C1.67 2.65 1.34 4.3 1 6 C1.66 6 2.32 6 3 6 C2.67 7.65 2.34 9.3 2 11 C4.97 11.495 4.97 11.495 8 12 C6 14 6 14 2.875 14.125 C1.451875 14.063125 1.451875 14.063125 0 14 C-0.85380428 11.03878992 -1.13517764 8.3912356 -1.125 5.3125 C-1.12757813 4.52488281 -1.13015625 3.73726562 -1.1328125 2.92578125 C-1 1 -1 1 0 0 Z " fill="#6F1C24" transform="translate(461,227)"/>
<path d="M0 0 C0.66 0.33 1.32 0.66 2 1 C3.26229508 5.47540984 3.26229508 5.47540984 2 8 C-0.64 8 -3.28 8 -6 8 C-3.375 2.25 -3.375 2.25 0 0 Z " fill="#9F5662" transform="translate(575,209)"/>
<path d="M0 0 C5.61 0 11.22 0 17 0 C16.67 0.66 16.34 1.32 16 2 C13.671875 2.37890625 13.671875 2.37890625 10.75 2.5625 C7.07880852 2.80559241 3.59511079 3.20618904 0 4 C-0.33 3.34 -0.66 2.68 -1 2 C-0.67 1.34 -0.34 0.68 0 0 Z " fill="#466174" transform="translate(226,134)"/>
<path d="M0 0 C2.74415095 2.26118038 3.89410286 3.47594492 4.609375 7.015625 C4.65578125 8.08296875 4.7021875 9.1503125 4.75 10.25 C4.80671875 11.32765625 4.8634375 12.4053125 4.921875 13.515625 C4.94765625 14.33546875 4.9734375 15.1553125 5 16 C4.34 15.67 3.68 15.34 3 15 C2.375 11.9375 2.375 11.9375 2 9 C1.34 9 0.68 9 0 9 C-0.84454356 5.62182575 -1.10844919 3.32534757 0 0 Z " fill="#D62F41" transform="translate(510,145)"/>
<path d="M0 0 C2.64 0.66 5.28 1.32 8 2 C2.61313869 6.63868613 2.61313869 6.63868613 -1 7 C-1.99 6.67 -2.98 6.34 -4 6 C-4 5.01 -4 4.02 -4 3 C-2.68 3 -1.36 3 0 3 C0 2.01 0 1.02 0 0 Z " fill="#741825" transform="translate(541,225)"/>
<path d="M0 0 C0.33 0 0.66 0 1 0 C1 5.28 1 10.56 1 16 C0.34 16.33 -0.32 16.66 -1 17 C-1.66 15.02 -2.32 13.04 -3 11 C-2.34 11 -1.68 11 -1 11 C-1.20625 9.741875 -1.4125 8.48375 -1.625 7.1875 C-2.21335669 3.5985242 -2.16617415 3.24926122 0 0 Z " fill="#811B27" transform="translate(510,212)"/>
<path d="M0 0 C0.33 0 0.66 0 1 0 C1 5.61 1 11.22 1 17 C-1.97 17 -4.94 17 -8 17 C-8 16.67 -8 16.34 -8 16 C-6.02 15.67 -4.04 15.34 -2 15 C-1.34 10.05 -0.68 5.1 0 0 Z " fill="#6B1F2A" transform="translate(478,224)"/>
<path d="M0 0 C0.33 0.99 0.66 1.98 1 3 C0.01 3.495 0.01 3.495 -1 4 C-2.13350534 6.01669827 -2.13350534 6.01669827 -3 8 C-4.32 7.01 -5.64 6.02 -7 5 C-6.625 3.0625 -6.625 3.0625 -6 1 C-4 0 -4 0 0 0 Z " fill="#AE2232" transform="translate(504,191)"/>
<path d="M0 0 C0.8353125 0.6496875 0.8353125 0.6496875 1.6875 1.3125 C4.04802829 3.03504767 6.47713975 4.52833152 9 6 C8.67 6.99 8.34 7.98 8 9 C6.02 8.34 4.04 7.68 2 7 C2 6.01 2 5.02 2 4 C0.68 3.34 -0.64 2.68 -2 2 C-1.34 1.34 -0.68 0.68 0 0 Z " fill="#7D4B50" transform="translate(527,254)"/>
<path d="M0 0 C2.375 0.3125 2.375 0.3125 5 1 C7.67927341 5.01891012 7.15601248 7.24161923 7 12 C6.67 12 6.34 12 6 12 C5.67 10.02 5.34 8.04 5 6 C4.01 6 3.02 6 2 6 C2 5.34 2 4.68 2 4 C1.34 4 0.68 4 0 4 C0 2.68 0 1.36 0 0 Z " fill="#7A2A33" transform="translate(576,225)"/>
<path d="M0 0 C0.33 0.66 0.66 1.32 1 2 C0.06421005 4.35981813 -0.93347808 6.69631264 -2 9 C-2.66 9 -3.32 9 -4 9 C-4.4021875 10.1446875 -4.4021875 10.1446875 -4.8125 11.3125 C-5.94424112 13.87380884 -6.91223401 15.19692938 -9 17 C-8.42415568 14.61435923 -7.77772405 12.33317216 -7 10 C-6.34 10 -5.68 10 -5 10 C-4.34 7.69 -3.68 5.38 -3 3 C-2.34 3 -1.68 3 -1 3 C-0.67 2.01 -0.34 1.02 0 0 Z " fill="#BA5F63" transform="translate(538,186)"/>
<path d="M0 0 C2.42130331 3.63195496 2.21022785 5.38349348 2.125 9.6875 C2.10695313 10.86699219 2.08890625 12.04648438 2.0703125 13.26171875 C2.03550781 14.61716797 2.03550781 14.61716797 2 16 C0.68 14.68 -0.64 13.36 -2 12 C-1.649375 10.9275 -1.29875 9.855 -0.9375 8.75 C-0.075965 5.30385999 0.10117041 4.18115896 -1 1 C-0.67 0.67 -0.34 0.34 0 0 Z " fill="#F8061B" transform="translate(578,130)"/>
<path d="M0 0 C0.66 1.32 1.32 2.64 2 4 C1.01 4.33 0.02 4.66 -1 5 C-1.66 5.66 -2.32 6.32 -3 7 C-5.6015625 7.1953125 -5.6015625 7.1953125 -8.625 7.125 C-10.12933594 7.09792969 -10.12933594 7.09792969 -11.6640625 7.0703125 C-12.43492188 7.04710937 -13.20578125 7.02390625 -14 7 C-13.67 6.34 -13.34 5.68 -13 5 C-11.02637401 4.8026374 -9.05264401 4.60618729 -7.078125 4.41796875 C-4.01225909 3.80133782 -2.20450383 2.13561309 0 0 Z " fill="#3B5265" transform="translate(116,185)"/>
<path d="M0 0 C1.93719378 -0.05406122 3.87481921 -0.09282025 5.8125 -0.125 C6.89144531 -0.14820313 7.97039063 -0.17140625 9.08203125 -0.1953125 C12 0 12 0 15 2 C12.87562788 2.19448477 10.75046809 2.38038289 8.625 2.5625 C7.44164062 2.66691406 6.25828125 2.77132812 5.0390625 2.87890625 C2 3 2 3 0 2 C0 1.34 0 0.68 0 0 Z " fill="#E03643" transform="translate(536,148)"/>
<path d="M0 0 C0.66 0 1.32 0 2 0 C2 0.66 2 1.32 2 2 C1.21625 2.763125 0.4325 3.52625 -0.375 4.3125 C-2.90052521 6.89815676 -3.93407386 8.60841682 -5 12 C-6.32 11.67 -7.64 11.34 -9 11 C-7.44095325 7.17324889 -4.96833913 4.81992217 -2 2 C-1.34 1.34 -0.68 0.68 0 0 Z " fill="#DE4D5A" transform="translate(530,113)"/>
<path d="M0 0 C0.33 2.64 0.66 5.28 1 8 C-1.31 8 -3.62 8 -6 8 C-3.18918919 0 -3.18918919 0 0 0 Z " fill="#771C26" transform="translate(510,232)"/>
<path d="M0 0 C0.99 0.33 1.98 0.66 3 1 C4.37407134 3.85384047 3.95284958 5.1634548 3.0625 8.25 C2.711875 9.1575 2.36125 10.065 2 11 C1.34 11 0.68 11 0 11 C-0.19406478 9.35492782 -0.38007935 7.70890406 -0.5625 6.0625 C-0.66691406 5.14597656 -0.77132813 4.22945312 -0.87890625 3.28515625 C-0.91886719 2.53105469 -0.95882813 1.77695313 -1 1 C-0.67 0.67 -0.34 0.34 0 0 Z " fill="#981424" transform="translate(493,200)"/>
<path d="M0 0 C1.32 0.33 2.64 0.66 4 1 C3.34 1 2.68 1 2 1 C2 2.32 2 3.64 2 5 C1.01 5.495 1.01 5.495 0 6 C-0.65555119 8.52733235 -0.65555119 8.52733235 -1 11 C-1.66 11 -2.32 11 -3 11 C-2.67 8.03 -2.34 5.06 -2 2 C-1.34 2 -0.68 2 0 2 C0 1.34 0 0.68 0 0 Z " fill="#A41927" transform="translate(557,187)"/>
<path d="M0 0 C0.33 0.66 0.66 1.32 1 2 C-1.64 2 -4.28 2 -7 2 C-7 3.98 -7 5.96 -7 8 C-7.66 8 -8.32 8 -9 8 C-9.33 5.69 -9.66 3.38 -10 1 C-6.61981469 -0.04005702 -3.5219721 -0.08004482 0 0 Z " fill="#0C2D45" transform="translate(372,148)"/>
<path d="M0 0 C3.21185899 4.81778849 2.65994746 10.68319511 1.546875 16.27734375 C1.09093581 17.86987421 0.55494772 19.43920954 0 21 C-0.99 20.67 -1.98 20.34 -3 20 C-2.505 18.515 -2.505 18.515 -2 17 C-1.34 17 -0.68 17 0 17 C0 11.39 0 5.78 0 0 Z " fill="#CB565F" transform="translate(494,158)"/>
<path d="M0 0 C0.33 1.98 0.66 3.96 1 6 C0.01 6.495 0.01 6.495 -1 7 C-1.391875 6.54625 -1.78375 6.0925 -2.1875 5.625 C-4.30832487 3.72357081 -6.33042235 2.93795972 -9 2 C-5.86501708 0.14223235 -3.62528568 -0.20140476 0 0 Z " fill="#DC545F" transform="translate(493,150)"/>
<path d="M0 0 C-0.33 0.99 -0.66 1.98 -1 3 C-4.63 3 -8.26 3 -12 3 C-11 1 -11 1 -9.2578125 0.33203125 C-8.55398438 0.16058594 -7.85015625 -0.01085937 -7.125 -0.1875 C-6.42632813 -0.36667969 -5.72765625 -0.54585937 -5.0078125 -0.73046875 C-3 -1 -3 -1 0 0 Z " fill="#F0081C" transform="translate(547,145)"/>
<path d="M0 0 C0.33 1.32 0.66 2.64 1 4 C1.99 3.34 2.98 2.68 4 2 C6.04296875 1.5859375 6.04296875 1.5859375 8.1875 1.375 C9.445625 1.25125 10.70375 1.1275 12 1 C9.86725921 3.34601486 7.97462211 4.86264449 5 6 C2.25 6.125 2.25 6.125 0 6 C0 4.02 0 2.04 0 0 Z " fill="#844F55" transform="translate(557,259)"/>
<path d="M0 0 C0.66 0.33 1.32 0.66 2 1 C2 6.61 2 12.22 2 18 C1.67 18 1.34 18 1 18 C0.93941406 17.27554688 0.87882813 16.55109375 0.81640625 15.8046875 C0.45428963 11.62641884 0.08798599 7.51031873 -0.625 3.375 C-0.74875 2.59125 -0.8725 1.8075 -1 1 C-0.67 0.67 -0.34 0.34 0 0 Z " fill="#0E2E43" transform="translate(164,136)"/>
<path d="M0 0 C0.33 0 0.66 0 1 0 C1.125 2.375 1.125 2.375 1 5 C0.34 5.66 -0.32 6.32 -1 7 C-1.67940467 9.42715206 -1.67940467 9.42715206 -2.125 12.125 C-2.29257812 13.03507813 -2.46015625 13.94515625 -2.6328125 14.8828125 C-2.75398437 15.58148438 -2.87515625 16.28015625 -3 17 C-3.33 17 -3.66 17 -4 17 C-4.19392201 11.47322267 -3.7479503 7.24385089 -2 2 C-1.34 2 -0.68 2 0 2 C0 1.34 0 0.68 0 0 Z " fill="#E80D22" transform="translate(523,122)"/>
<path d="M0 0 C-2.34545328 2.34545328 -3.95985838 2.95508888 -7.26171875 3.09765625 C-8.06222656 3.08605469 -8.86273438 3.07445312 -9.6875 3.0625 C-10.89986328 3.04896484 -10.89986328 3.04896484 -12.13671875 3.03515625 C-13.05904297 3.01775391 -13.05904297 3.01775391 -14 3 C-13.67 2.34 -13.34 1.68 -13 1 C-8.65012229 -0.03568517 -4.45537928 -0.08910759 0 0 Z " fill="#758692" transform="translate(231,241)"/>
<path d="M0 0 C0.33 0.66 0.66 1.32 1 2 C-3.56327794 5.53286034 -7.49633208 5.32374517 -13 5 C-12.34 3.68 -11.68 2.36 -11 1 C-9.01432292 1.32552083 -7.02864583 1.65104167 -5.04296875 1.9765625 C-2.68244176 2.19577848 -2.68244176 2.19577848 0 0 Z " fill="#576D7F" transform="translate(225,223)"/>
<path d="M0 0 C1.32 0 2.64 0 4 0 C5.35439668 2.70879335 5.06501451 5.00933268 5 8 C3.68 8.33 2.36 8.66 1 9 C1.66 8.67 2.32 8.34 3 8 C2.505 7.05125 2.01 6.1025 1.5 5.125 C0 2 0 2 0 0 Z " fill="#941725" transform="translate(544,201)"/>
<path d="M0 0 C10.55808656 -0.3690205 10.55808656 -0.3690205 15 2 C14.01 2.66 13.02 3.32 12 4 C11.01 3.67 10.02 3.34 9 3 C8.01 3 7.02 3 6 3 C6 2.34 6 1.68 6 1 C4.02 1 2.04 1 0 1 C0 0.67 0 0.34 0 0 Z " fill="#8B3E4C" transform="translate(543,226)"/>
<path d="M0 0 C0.99 0.33 1.98 0.66 3 1 C2.01 2.485 2.01 2.485 1 4 C0.87625 4.66 0.7525 5.32 0.625 6 C-0.21593998 8.69100793 -1.68231289 9.504718 -4 11 C-4 10.01 -4 9.02 -4 8 C-3.34 8 -2.68 8 -2 8 C-1.855625 6.865625 -1.71125 5.73125 -1.5625 4.5625 C-1 1 -1 1 0 0 Z " fill="#D80B22" transform="translate(555,159)"/>
<path d="M0 0 C2.64 0 5.28 0 8 0 C7.67 1.32 7.34 2.64 7 4 C5.02 4 3.04 4 1 4 C0.67 2.68 0.34 1.36 0 0 Z " fill="#7C1725" transform="translate(559,227)"/>
<path d="M0 0 C0.66 0.33 1.32 0.66 2 1 C0.27256146 4.61939504 -1.47650757 7.87567603 -4 11 C-4 8.36 -4 5.72 -4 3 C-2.68 2.67 -1.36 2.34 0 2 C0 1.34 0 0.68 0 0 Z " fill="#905058" transform="translate(544,216)"/>
<path d="M0 0 C0.66 0 1.32 0 2 0 C2 3 2 3 -0.4375 5.5625 C-1.283125 6.366875 -2.12875 7.17125 -3 8 C-3.33 8.66 -3.66 9.32 -4 10 C-4.99 9.67 -5.98 9.34 -7 9 C-5.625 7 -5.625 7 -4 5 C-3.34 5 -2.68 5 -2 5 C-1.855625 4.360625 -1.71125 3.72125 -1.5625 3.0625 C-1 1 -1 1 0 0 Z " fill="#B75862" transform="translate(511,181)"/>
<path d="M0 0 C0.33 0 0.66 0 1 0 C1 2.64 1 5.28 1 8 C-1.96175123 7.38722388 -3.38058783 6.74627478 -6 5 C-6 4.01 -6 3.02 -6 2 C-3.00667261 2.9977758 -2.05233685 3.7522025 0 6 C-0.2784375 4.7934375 -0.2784375 4.7934375 -0.5625 3.5625 C-0.706875 2.716875 -0.85125 1.87125 -1 1 C-0.67 0.67 -0.34 0.34 0 0 Z " fill="#D5121F" transform="translate(529,155)"/>
<path d="M0 0 C0.33 1.98 0.66 3.96 1 6 C0.34 5.67 -0.32 5.34 -1 5 C-1 4.34 -1 3.68 -1 3 C-4.3 3 -7.6 3 -11 3 C-8.89427904 -1.21144191 -4.11694326 -0.07767817 0 0 Z " fill="#0F2F46" transform="translate(318,148)"/>
<path d="M0 0 C5.75 2.625 5.75 2.625 8 6 C6.35 6 4.7 6 3 6 C3 5.34 3 4.68 3 4 C1.68 4 0.36 4 -1 4 C-0.67 2.68 -0.34 1.36 0 0 Z " fill="#D74756" transform="translate(502,138)"/>
<path d="M0 0 C3.3 0.33 6.6 0.66 10 1 C10 1.33 10 1.66 10 2 C8.3603125 2.37125 8.3603125 2.37125 6.6875 2.75 C2.94091591 4.02002851 1.89404734 4.65756352 0 8 C0 5.36 0 2.72 0 0 Z " fill="#244054" transform="translate(410,134)"/>
<path d="M0 0 C0.99 0 1.98 0 3 0 C2.64950425 3.24208567 2.43778819 4.61527704 -0.0625 6.8125 C-0.701875 7.204375 -1.34125 7.59625 -2 8 C-1.125 2.25 -1.125 2.25 0 0 Z " fill="#304C5F" transform="translate(396,226)"/>
<path d="M0 0 C1.64826111 2.96687001 2.44271087 5.65626525 3 9 C1.02 8.34 -0.96 7.68 -3 7 C-1.125 2.25 -1.125 2.25 0 0 Z " fill="#8F3942" transform="translate(525,208)"/>
<path d="M0 0 C0 3.6959107 -0.83487616 6.50462849 -2 10 C-2.66 10 -3.32 10 -4 10 C-4.25 7.25 -4.25 7.25 -4 4 C-2 1.625 -2 1.625 0 0 Z " fill="#981725" transform="translate(536,194)"/>
<path d="M0 0 C1.35439668 2.70879335 1.06501451 5.00933268 1 8 C-2.75 9.125 -2.75 9.125 -5 8 C-3.35 5.36 -1.7 2.72 0 0 Z " fill="#B73B4D" transform="translate(544,175)"/>
<path d="M0 0 C0.99 0 1.98 0 3 0 C2.67 0.99 2.34 1.98 2 3 C1.77281504 5.56634861 1.58391816 8.11678107 1.4375 10.6875 C1.39431641 11.38939453 1.35113281 12.09128906 1.30664062 12.81445312 C1.2008264 14.54275206 1.09993419 16.2713511 1 18 C0.67 18 0.34 18 0 18 C0 12.06 0 6.12 0 0 Z " fill="#DB1623" transform="translate(557,111)"/>
<path d="M0 0 C0.33 0 0.66 0 1 0 C0.38461538 7.50769231 0.38461538 7.50769231 -1.5625 10 C-2.036875 10.33 -2.51125 10.66 -3 11 C-3 8.36 -3 5.72 -3 3 C-2.01 3 -1.02 3 0 3 C0 2.01 0 1.02 0 0 Z " fill="#456073" transform="translate(245,220)"/>
<path d="M0 0 C1.4606285 2.64738916 2 3.89448334 2 7 C0.35 7.33 -1.3 7.66 -3 8 C-1.125 1.125 -1.125 1.125 0 0 Z " fill="#99454E" transform="translate(521,216)"/>
<path d="M0 0 C3.46865468 2.19681463 4.93033148 4.01305369 6 8 C5.625 10.3125 5.625 10.3125 5 12 C4.67 11.01 4.34 10.02 4 9 C3.34 8.67 2.68 8.34 2 8 C1.3671875 6.15234375 1.3671875 6.15234375 0.875 3.9375 C0.70742188 3.20402344 0.53984375 2.47054687 0.3671875 1.71484375 C0.24601562 1.14894531 0.12484375 0.58304688 0 0 Z " fill="#586F7D" transform="translate(395,143)"/>
<path d="M0 0 C4.875 4.625 4.875 4.625 6 8 C5.34 8.66 4.68 9.32 4 10 C3.896875 9.360625 3.79375 8.72125 3.6875 8.0625 C3.460625 7.381875 3.23375 6.70125 3 6 C2.01 5.67 1.02 5.34 0 5 C0 3.35 0 1.7 0 0 Z " fill="#DF4B58" transform="translate(572,117)"/>
<path d="M0 0 C1.32 0.33 2.64 0.66 4 1 C2 4 2 4 -1 6 C-1.99 5.67 -2.98 5.34 -4 5 C-2.68 3.35 -1.36 1.7 0 0 Z " fill="#F20A1A" transform="translate(529,116)"/>
<path d="M0 0 C1.98 0.99 1.98 0.99 4 2 C3.67 4.31 3.34 6.62 3 9 C0.90250005 6.64031256 0.03094296 5.45383006 -0.1875 2.25 C-0.125625 1.5075 -0.06375 0.765 0 0 Z " fill="#D33341" transform="translate(520,151)"/>
<path d="M0 0 C-1.97420135 2.52259061 -2.96745642 2.9929808 -6.1875 3.6875 C-7.5796875 3.8421875 -7.5796875 3.8421875 -9 4 C-8.67 3.01 -8.34 2.02 -8 1 C-5.07175348 0.02391783 -3.04386724 -0.08226668 0 0 Z " fill="#366471" transform="translate(128,201)"/>
<path d="M0 0 C6.75 0.75 6.75 0.75 9 3 C5.37 3 1.74 3 -2 3 C-1.34 2.67 -0.68 2.34 0 2 C0 1.34 0 0.68 0 0 Z " fill="#F5061B" transform="translate(550,144)"/>
<path d="M0 0 C1.98 0.495 1.98 0.495 4 1 C4.33 2.32 4.66 3.64 5 5 C2.03 4.505 2.03 4.505 -1 4 C-0.67 2.68 -0.34 1.36 0 0 Z " fill="#2B4760" transform="translate(388,138)"/>
<path d="M0 0 C-0.61875 0.4125 -1.2375 0.825 -1.875 1.25 C-4.06768281 3.05573879 -4.92788417 4.4090534 -6 7 C-6.66 5.68 -7.32 4.36 -8 3 C-5.53387212 -0.1151089 -3.89156016 -0.31553191 0 0 Z " fill="#F20817" transform="translate(541,112)"/>
<path d="M0 0 C0.33 0 0.66 0 1 0 C1.33 3.96 1.66 7.92 2 12 C1.34 12 0.68 12 0 12 C-0.33 12.99 -0.66 13.98 -1 15 C-0.67 10.05 -0.34 5.1 0 0 Z " fill="#0B2A48" transform="translate(400,159)"/>
<path d="M0 0 C0.75 1.5625 0.75 1.5625 1 4 C-0.13084437 6.50286409 -1.52139516 8.67007722 -3 11 C-3.66 10.01 -4.32 9.02 -5 8 C-4.01 7.67 -3.02 7.34 -2 7 C-0.77030122 3.48809191 -0.77030122 3.48809191 0 0 Z " fill="#D44855" transform="translate(578,155)"/>
<path d="M0 0 C1.65 0 3.3 0 5 0 C5.33 1.32 5.66 2.64 6 4 C4.68 4.33 3.36 4.66 2 5 C1.34 3.35 0.68 1.7 0 0 Z " fill="#1D3D53" transform="translate(129,146)"/>
<path d="M0 0 C0.99 0 1.98 0 3 0 C3 0.66 3 1.32 3 2 C3.99 2 4.98 2 6 2 C5.67 3.32 5.34 4.64 5 6 C3.0625 5.25 3.0625 5.25 1 4 C0.25 1.875 0.25 1.875 0 0 Z " fill="#EB0F20" transform="translate(566,115)"/>
<path d="M0 0 C2 3 2 3 1.875 5 C0.76097537 7.54634201 -0.69550623 8.51322983 -3 10 C-2.67 8.68 -2.34 7.36 -2 6 C-1.34 6 -0.68 6 0 6 C0 4.02 0 2.04 0 0 Z " fill="#17394F" transform="translate(226,219)"/>
<path d="M0 0 C0.66 0 1.32 0 2 0 C0.90931332 3.77545388 0.0916909 6.47043472 -3 9 C-2.5020163 5.26512223 -2.12508244 3.18762365 0 0 Z " fill="#C94B55" transform="translate(572,166)"/>
<path d="M0 0 C6.75 -0.125 6.75 -0.125 9 1 C9 1.66 9 2.32 9 3 C5.85375007 3.26218749 4.38162983 3.24754367 1.6875 1.5 C1.130625 1.005 0.57375 0.51 0 0 Z " fill="#D32239" transform="translate(492,136)"/>
<path d="M0 0 C0.66 0 1.32 0 2 0 C1.67 2.64 1.34 5.28 1 8 C-1 5 -1 5 -0.625 2.3125 C-0.41875 1.549375 -0.2125 0.78625 0 0 Z " fill="#27465C" transform="translate(195,221)"/>
<path d="M0 0 C1.32 0 2.64 0 4 0 C4.33 1.32 4.66 2.64 5 4 C3.68 4.33 2.36 4.66 1 5 C0.67 3.35 0.34 1.7 0 0 Z " fill="#861923" transform="translate(521,215)"/>
<path d="M0 0 C2.6855594 2.6855594 3.06049974 5.37621328 4 9 C3.34 8.67 2.68 8.34 2 8 C2 7.01 2 6.02 2 5 C1.01 5 0.02 5 -1 5 C-0.67 3.35 -0.34 1.7 0 0 Z " fill="#5F7281" transform="translate(398,193)"/>
<path d="M0 0 C0.99 0 1.98 0 3 0 C3 1.65 3 3.3 3 5 C2.01 5.495 2.01 5.495 1 6 C1 5.34 1 4.68 1 4 C0.34 4 -0.32 4 -1 4 C-0.67 2.68 -0.34 1.36 0 0 Z " fill="#BB2837" transform="translate(546,171)"/>
<path d="" fill="#FFFFFF" transform="translate(0,0)"/>
<path d="" fill="#FFFFFF" transform="translate(0,0)"/>
<path d="" fill="#000000" transform="translate(0,0)"/>
<path d="" fill="#000000" transform="translate(0,0)"/>
<path d="" fill="#FFFFFF" transform="translate(0,0)"/>
<path d="" fill="#00FFFF" transform="translate(0,0)"/>
<path d="" fill="#FFFFFF" transform="translate(0,0)"/>
</svg>
